<?xml version="1.0" standalone="no"?>
<!DOCTYPE svg PUBLIC "-//W3C//DTD SVG 20010904//EN"
 "http://www.w3.org/TR/2001/REC-SVG-20010904/DTD/svg10.dtd">
<svg version="1.0" xmlns="http://www.w3.org/2000/svg"
 width="700.000000pt" height="700.000000pt" viewBox="0 0 700.000000 700.000000"
 preserveAspectRatio="xMidYMid meet">
<metadata>
Created by potrace 1.11, written by Peter Selinger 2001-2013
</metadata>
<g transform="translate(0.000000,700.000000) scale(0.100000,-0.100000)"
fill="#000000" stroke="none">
<path d="M2293 5595 l-71 -125 116 -69 c65 -38 178 -104 252 -146 74 -43 137
-80 140 -82 3 -3 5 -193 5 -423 1 -231 3 -421 5 -423 5 -5 77 -48 151 -89 69
-40 348 -202 409 -238 30 -17 81 -47 115 -65 l60 -33 135 79 c74 43 144 83
155 89 11 5 45 24 76 42 31 18 127 74 213 123 l156 90 0 426 0 427 83 48 c45
26 109 62 142 81 33 18 67 38 75 43 8 6 57 34 108 63 l92 54 -25 37 c-14 20
-25 39 -25 41 0 5 -101 175 -104 175 -2 0 -100 -55 -217 -121 -118 -67 -229
-130 -247 -141 -18 -10 -65 -36 -103 -58 l-70 -40 -57 32 c-31 17 -130 74
-220 125 -100 58 -169 92 -179 89 -9 -4 -68 -37 -132 -75 -323 -190 -311 -184
-329 -168 -9 9 -21 16 -25 16 -4 0 -33 15 -65 34 -185 111 -516 300 -530 303
-13 3 -35 -28 -89 -121z"/>
<path d="M2307 4051 c-45 -43 -116 -109 -157 -147 -74 -69 -208 -196 -390
-371 -52 -50 -106 -101 -119 -112 -14 -12 -104 -97 -200 -189 -97 -93 -212
-202 -256 -244 -44 -42 -101 -96 -126 -119 -25 -24 -122 -116 -214 -204 -93
-88 -216 -206 -274 -261 -58 -56 -122 -116 -141 -134 -19 -18 -109 -103 -200
-190 -91 -87 -180 -171 -197 -188 -18 -16 -33 -39 -33 -51 l0 -21 791 0 792 0
408 412 c355 358 409 416 410 442 1 46 1 112 -2 314 -1 101 1 186 5 189 3 3
92 -44 198 -104 106 -61 210 -120 231 -132 21 -12 98 -56 170 -98 174 -100
380 -218 398 -226 8 -4 27 -15 44 -25 29 -18 30 -18 90 16 92 52 373 211 435
245 30 17 72 41 92 54 21 13 39 23 41 23 3 0 78 42 168 93 178 101 279 157
283 157 2 0 2 -123 2 -272 l-2 -273 410 -412 410 -413 808 0 c717 0 847 4 799
22 -5 2 -82 73 -171 158 -90 85 -180 171 -200 190 -190 180 -350 332 -385 365
-108 103 -435 413 -542 514 -37 36 -144 138 -238 227 -93 89 -186 176 -205
194 -19 18 -105 99 -190 180 -85 81 -177 168 -205 193 -27 25 -102 95 -165
156 l-115 109 -60 -33 c-101 -55 -316 -175 -385 -215 -36 -20 -96 -54 -135
-75 -106 -57 -319 -176 -330 -185 -5 -4 -49 -28 -96 -53 l-85 -46 -160 91
c-87 50 -179 102 -204 116 -25 14 -62 36 -82 49 -21 12 -40 23 -43 23 -2 0
-66 36 -141 80 -75 44 -138 80 -139 80 -2 0 -73 40 -160 90 l-156 90 -82 -79z
m-197 -954 l-1 -333 -325 -325 -324 -324 -376 0 -376 -1 85 81 c91 86 303 286
377 355 25 23 81 76 126 118 44 43 142 136 218 207 201 189 217 205 370 349
146 138 219 206 224 206 1 0 2 -150 2 -333z m2812 261 c36 -35 103 -98 149
-142 46 -43 151 -142 234 -220 82 -77 161 -152 176 -166 15 -14 91 -86 169
-160 78 -74 159 -151 180 -170 20 -19 99 -94 176 -166 76 -72 161 -152 189
-178 l49 -46 -375 0 -375 0 -325 325 -325 324 2 328 c0 180 2 329 3 331 3 6
12 -1 73 -60z"/>
<path d="M2724 2222 c1 -213 4 -392 8 -398 4 -7 124 -78 265 -159 142 -80 265
-151 273 -156 74 -44 190 -109 194 -109 4 0 133 73 289 161 298 171 309 177
400 228 l57 33 0 384 0 385 -72 -39 c-113 -60 -390 -212 -423 -232 -16 -9 -70
-39 -120 -65 -49 -26 -94 -51 -100 -56 -5 -5 -16 -9 -25 -9 -10 0 -125 62
-256 138 -132 76 -246 141 -254 145 -8 4 -24 13 -35 19 -24 16 -74 45 -146 86
l-56 32 1 -388z"/>
</g>
</svg>
