<svg xmlns="http://www.w3.org/2000/svg" xmlns:xlink="http://www.w3.org/1999/xlink" width="167" height="165" fill="none"><mask id="A" mask-type="alpha" maskUnits="userSpaceOnUse" x="0" y="0" width="167" height="165"><path fill="#0f3599" d="M0 0h167v165H0z"/></mask><g mask="url(#A)"><g opacity=".67"><path d="M127.681 6.175L-8.074 245.399l-1.317-2.234L126.398 4l1.283 2.175z" fill="url(#B)"/><path d="M131.286 12.288L-4.468 251.512l-1.317-2.234 135.79-239.165 1.282 2.175z" fill="url(#C)"/><path d="M134.891 18.402L-.863 257.625l-1.317-2.233 135.79-239.165 1.282 2.175z" fill="url(#D)"/><path d="M138.497 24.515L2.742 263.739l-1.317-2.234L137.214 22.34l1.283 2.175z" fill="url(#E)"/><path d="M142.102 30.628L6.347 269.852l-1.317-2.234L140.819 28.454l1.283 2.175z" fill="url(#F)"/><path opacity=".5" fill-rule="evenodd" d="M181.006 120.316v37.655l-32.753 18.827-32.774-18.827v-37.655l32.774-18.828 32.753 18.828zm-9.092 5.161v27.251l-23.705 13.626-23.72-13.626v-27.251l23.72-13.626 23.705 13.626z" fill="url(#G)"/><path d="M88.177 220.71L197.698 27.714l1.063 1.802L89.212 222.464l-1.035-1.754z" fill="url(#H)"/><path d="M85.269 215.778L194.79 22.782l1.062 1.802L86.303 217.532l-1.035-1.754z" fill="url(#I)"/><path d="M82.36 210.845L191.881 17.85l1.063 1.802L83.395 212.6l-1.035-1.755z" fill="url(#J)"/><path d="M79.451 205.913L188.972 12.918l1.063 1.802L80.486 207.668l-1.035-1.755z" fill="url(#K)"/><path d="M76.542 200.982L186.063 7.987l1.063 1.802L77.577 202.737l-1.035-1.755z" fill="url(#L)"/><g style="mix-blend-mode:multiply"><path d="M166.291 97.69V67.097l-26.864-15.296-26.881 15.296V97.69l26.881 15.296 26.864-15.296z" fill="url(#M)"/></g></g></g><defs><linearGradient id="B" x1="-8.723" y1="244.298" x2="196.686" y2="123.161" xlink:href="#N"><stop stop-color="#fff" stop-opacity=".6"/><stop offset=".501" stop-color="#ffb77f" stop-opacity=".27"/><stop offset="1" stop-color="#ff6f00" stop-opacity="0"/></linearGradient><linearGradient id="C" x1="-5.117" y1="250.411" x2="200.292" y2="129.275" xlink:href="#N"><stop stop-color="#fff" stop-opacity=".6"/><stop offset=".501" stop-color="#ffb77f" stop-opacity=".27"/><stop offset="1" stop-color="#ff6f00" stop-opacity="0"/></linearGradient><linearGradient id="D" x1="-1.512" y1="256.525" x2="203.897" y2="135.388" xlink:href="#N"><stop stop-color="#fff" stop-opacity=".6"/><stop offset=".501" stop-color="#ffb77f" stop-opacity=".27"/><stop offset="1" stop-color="#ff6f00" stop-opacity="0"/></linearGradient><linearGradient id="E" x1="2.093" y1="262.638" x2="207.502" y2="141.501" xlink:href="#N"><stop stop-color="#fff" stop-opacity=".6"/><stop offset=".501" stop-color="#ffb77f" stop-opacity=".27"/><stop offset="1" stop-color="#ff6f00" stop-opacity="0"/></linearGradient><linearGradient id="F" x1="5.698" y1="268.751" x2="211.107" y2="147.615" xlink:href="#N"><stop stop-color="#fff" stop-opacity=".6"/><stop offset=".501" stop-color="#ffb77f" stop-opacity=".27"/><stop offset="1" stop-color="#ff6f00" stop-opacity="0"/></linearGradient><linearGradient id="G" x1="186.764" y1="176.721" x2="123.978" y2="115.612" xlink:href="#N"><stop stop-color="#ff6f00" stop-opacity="0"/><stop offset="1" stop-color="#ff6f00"/></linearGradient><linearGradient id="H" x1="198.222" y1="28.602" x2="32.507" y2="126.33" xlink:href="#N"><stop stop-color="#fff" stop-opacity=".6"/><stop offset=".501" stop-color="#ffb77f" stop-opacity=".27"/><stop offset="1" stop-color="#ff6f00" stop-opacity="0"/></linearGradient><linearGradient id="I" x1="195.313" y1="23.67" x2="29.598" y2="121.398" xlink:href="#N"><stop stop-color="#fff" stop-opacity=".6"/><stop offset=".501" stop-color="#ffb77f" stop-opacity=".27"/><stop offset="1" stop-color="#ff6f00" stop-opacity="0"/></linearGradient><linearGradient id="J" x1="192.405" y1="18.738" x2="26.689" y2="116.466" xlink:href="#N"><stop stop-color="#fff" stop-opacity=".6"/><stop offset=".501" stop-color="#ffb77f" stop-opacity=".27"/><stop offset="1" stop-color="#ff6f00" stop-opacity="0"/></linearGradient><linearGradient id="K" x1="189.496" y1="13.806" x2="23.781" y2="111.534" xlink:href="#N"><stop stop-color="#fff" stop-opacity=".6"/><stop offset=".501" stop-color="#ffb77f" stop-opacity=".27"/><stop offset="1" stop-color="#ff6f00" stop-opacity="0"/></linearGradient><linearGradient id="L" x1="186.587" y1="8.875" x2="20.871" y2="106.602" xlink:href="#N"><stop stop-color="#fff" stop-opacity=".6"/><stop offset=".501" stop-color="#ffb77f" stop-opacity=".27"/><stop offset="1" stop-color="#ff6f00" stop-opacity="0"/></linearGradient><linearGradient id="M" x1="166.291" y1="52.361" x2="112.543" y2="52.361" xlink:href="#N"><stop stop-color="#fff" stop-opacity=".6"/><stop offset=".501" stop-color="#ffb77f" stop-opacity=".27"/><stop offset="1" stop-color="#ff6f00" stop-opacity="0"/></linearGradient><linearGradient id="N" gradientUnits="userSpaceOnUse"/></defs></svg>