<svg width="80" height="80" viewBox="0 0 80 80" fill="none" xmlns="http://www.w3.org/2000/svg">
<path d="M41.5397 59.1406H37.476C36.9366 59.1406 36.4994 59.5779 36.4994 60.1172C36.4994 60.6564 36.9366 61.0938 37.476 61.0938H41.5397C42.0791 61.0938 42.5163 60.6564 42.5163 60.1172C42.5163 59.5779 42.0791 59.1406 41.5397 59.1406Z" fill="#0F3599"/>
<path d="M59.0391 22.8126H53.1797V20.6914C54.3163 20.2883 55.1328 19.2028 55.1328 17.9297C55.1328 16.3143 53.8186 15 52.2031 15H26.8125C25.1971 15 23.8828 16.3143 23.8828 17.9298C23.8828 19.2028 24.6993 20.2883 25.8359 20.6914V22.8126H19.9766C19.4372 22.8126 19 23.2499 19 23.7892V30.6251C19 34.9329 22.5047 38.4376 26.8125 38.4376H27.6382C27.8259 38.7647 28.0265 39.086 28.2424 39.3994C29.6247 41.4059 31.4903 42.9923 33.6691 44.0275C33.656 44.14 33.6484 44.2543 33.6484 44.3703C33.6484 45.7386 34.5915 46.8905 35.8616 47.211C34.6882 51.1207 32.6029 55.2344 30.1328 55.2344H27.7891C27.2966 55.2344 26.8812 55.6011 26.82 56.0898L25.8435 63.9023C25.8087 64.1803 25.895 64.4598 26.0804 64.6697C26.2657 64.8797 26.5324 65 26.8125 65H52.2031C52.4832 65 52.7499 64.8798 52.9353 64.6697C53.1206 64.4598 53.2069 64.1802 53.1722 63.9023L52.1956 56.0898C52.1346 55.6011 51.7191 55.2344 51.2266 55.2344H48.8828C47.3878 55.2344 46.1246 53.6646 45.3282 52.3475C44.3048 50.6551 43.59 48.6615 43.1542 47.2108C44.4243 46.8903 45.3672 45.7384 45.3672 44.3702C45.3672 44.2542 45.3597 44.14 45.3465 44.0274C47.5257 42.9921 49.3915 41.4053 50.7739 39.3984C50.9895 39.0854 51.1899 38.7645 51.3774 38.4376H52.2031C56.5109 38.4376 60.0156 34.9329 60.0156 30.6251V23.7892C60.0156 23.2499 59.5784 22.8126 59.0391 22.8126ZM20.9531 30.6251V24.7657H25.8359V31.6749C25.8359 33.3331 26.1367 34.9556 26.7146 36.482C23.5288 36.4293 20.9531 33.8231 20.9531 30.6251ZM51.0969 63.0469H27.9188L28.6512 57.1875H50.3645L51.0969 63.0469ZM45.033 55.2344H33.9827C34.4572 54.7143 34.9148 54.0913 35.3543 53.3655C36.6025 51.304 37.422 48.8752 37.8701 47.2999H41.1456C41.5941 48.8769 42.4119 51.2995 43.6569 53.3582C44.0978 54.0871 44.5568 54.7125 45.033 55.2344ZM42.4375 45.3468H36.5781C36.0396 45.3468 35.6016 44.9087 35.6016 44.3702C35.6016 43.8317 36.0396 43.3937 36.5781 43.3937H42.4375C42.976 43.3937 43.4141 43.8317 43.4141 44.3702C43.4141 44.9087 42.976 45.3468 42.4375 45.3468ZM44.4832 42.2758C43.9548 41.7596 43.2328 41.4405 42.4375 41.4405H36.5781C35.7828 41.4405 35.0609 41.7596 34.5324 42.2758C30.4152 40.3371 27.7891 36.2462 27.7891 31.6749V20.8594H35.113C35.6523 20.8594 36.0896 20.4221 36.0896 19.8828C36.0896 19.3436 35.6523 18.9062 35.113 18.9062H26.8125C26.274 18.9062 25.8359 18.4682 25.8359 17.9297C25.8359 17.3912 26.274 16.9531 26.8125 16.9531H52.2031C52.7416 16.9531 53.1797 17.3912 53.1797 17.9298C53.1797 18.4683 52.7416 18.9062 52.2031 18.9062H43.9021C43.3627 18.9062 42.9255 19.3436 42.9255 19.8828C42.9255 20.4221 43.3627 20.8594 43.9021 20.8594H51.2266V31.6749C51.2266 36.246 48.6003 40.3371 44.4832 42.2758ZM58.0625 30.6251C58.0625 33.8231 55.4868 36.4293 52.3011 36.482C52.8789 34.9557 53.1797 33.3331 53.1797 31.6749V24.7657H58.0625V30.6251Z" fill="#0F3599"/>
<path d="M44.497 27.7343L42.3068 27.3463L41.2191 25.3455C41.2191 25.3454 41.219 25.3452 41.2189 25.3451C41.0364 25.0096 40.7615 24.7373 40.4241 24.5574C39.9646 24.3124 39.4373 24.261 38.9392 24.4125C38.4411 24.5641 38.0318 24.9006 37.7866 25.3604L36.7409 27.3234L34.5443 27.7317C34.1507 27.7949 33.7909 27.9744 33.5025 28.2516C33.127 28.6129 32.9147 29.0986 32.9046 29.6196C32.8944 30.1405 33.0878 30.6342 33.4498 31.0103L34.9947 32.6128L34.7113 34.7737C34.6352 35.1861 34.692 35.6026 34.8762 35.981C35.1046 36.45 35.5018 36.8018 35.9949 36.9718C36.2036 37.0438 36.4189 37.0796 36.6334 37.0796C36.9255 37.0796 37.2161 37.0132 37.4864 36.8817L39.4849 35.9088L41.5419 36.8888C41.8852 37.0527 42.2682 37.1115 42.6494 37.0587C43.1656 36.9874 43.623 36.7191 43.9376 36.3037C44.252 35.8882 44.3859 35.3751 44.3143 34.8576L44.0063 32.6536L45.5167 31.0605C45.8153 30.772 46.0106 30.4037 46.0823 29.993C46.2673 28.9325 45.5551 27.9191 44.497 27.7343ZM44.1165 29.6985L42.2653 31.651C42.0608 31.8667 41.9657 32.1637 42.0068 32.4581L42.3823 35.1257L39.9002 33.9433C39.6318 33.8156 39.32 33.8168 39.0527 33.9469L36.6321 35.1268C36.6369 35.1037 36.6408 35.0803 36.6438 35.057L36.9923 32.4005C37.0309 32.1058 36.9333 31.8096 36.727 31.5958L34.8542 29.66C34.8652 29.6584 34.8762 29.6565 34.8872 29.6545L37.5598 29.1578C37.852 29.1034 38.1036 28.9191 38.2433 28.6568L39.5049 26.2821L40.8153 28.6925C40.9572 28.9536 41.2103 29.1359 41.503 29.1877L44.1589 29.6563C44.1444 29.6699 44.1301 29.6839 44.1165 29.6985Z" fill="#0F3599"/>
<path d="M39.5079 20.8594C40.0472 20.8594 40.4844 20.4221 40.4844 19.8828C40.4844 19.3436 40.0472 18.9062 39.5079 18.9062H39.5072C38.9678 18.9062 38.531 19.3436 38.531 19.8828C38.531 20.4221 38.9685 20.8594 39.5079 20.8594Z" fill="#0F3599"/>
</svg>
