<?xml version="1.0" encoding="UTF-8"?>
<svg xmlns="http://www.w3.org/2000/svg">
    <defs>
        <symbol viewBox="0 0 50 50" id="smart-circle">
            <g fill-rule="evenodd">
                <g>
                    <path opacity="0.5" d="M47.1989 34.122C49.5612 28.373 49.6012 21.9318 47.3103 16.1541C45.0195 10.3763 40.5765 5.71256 34.9164 3.14447C29.2564 0.576378 22.8209 0.304216 16.9643 2.38527C11.1076 4.46632 6.28674 8.73828 3.51624 14.302C0.745743 19.8657 0.241719 26.2873 2.11025 32.2152C3.97879 38.143 8.07414 43.1148 13.5344 46.0841C18.9946 49.0534 25.3938 49.7886 31.3852 48.135C37.3765 46.4815 42.4927 42.568 45.657 37.2184M45.657 37.2184L46.3418 42.3092M45.657 37.2184L40.8566 37.8642" style="fill:none" />
                    <path d="M20.0684 16.8608V32.8608H30.0684V16.8608H20.0684ZM19.0684 14.8608H31.0684C31.3336 14.8608 31.5879 14.9662 31.7755 15.1537C31.963 15.3413 32.0684 15.5956 32.0684 15.8608V33.8608C32.0684 34.1261 31.963 34.3804 31.7755 34.5679C31.5879 34.7555 31.3336 34.8608 31.0684 34.8608H19.0684C18.8031 34.8608 18.5488 34.7555 18.3613 34.5679C18.1737 34.3804 18.0684 34.1261 18.0684 33.8608V15.8608C18.0684 15.5956 18.1737 15.3413 18.3613 15.1537C18.5488 14.9662 18.8031 14.8608 19.0684 14.8608ZM25.0684 29.8608C25.3336 29.8608 25.5879 29.9662 25.7755 30.1537C25.963 30.3413 26.0684 30.5956 26.0684 30.8608C26.0684 31.1261 25.963 31.3804 25.7755 31.5679C25.5879 31.7555 25.3336 31.8608 25.0684 31.8608C24.8031 31.8608 24.5488 31.7555 24.3613 31.5679C24.1737 31.3804 24.0684 31.1261 24.0684 30.8608C24.0684 30.5956 24.1737 30.3413 24.3613 30.1537C24.5488 29.9662 24.8031 29.8608 25.0684 29.8608Z" style="stroke:none;" />
                </g>
            </g>
        </symbol>
        <symbol viewBox="0 0 14 14" id="phone">
            <g fill-rule="evenodd">
                <g>
                    <path d="M10.861 8.593c-.273-.284-.602-.436-.951-.436s-.678.149-.962.433l-.889.886-.217-.113-.279-.149c-.833-.529-1.59-1.218-2.316-2.111-.352-.445-.588-.819-.76-1.199l.653-.642.236-.239c.591-.591.591-1.356 0-1.947l-.768-.768-.262-.267-.529-.523c-.273-.27-.599-.414-.943-.414s-.675.144-.957.414l-.006.006-.957.965a2.06 2.06 0 0 0-.611 1.309c-.068.822.174 1.587.36 2.088.456 1.23 1.137 2.369 2.153 3.591 1.233 1.472 2.716 2.634 4.41 3.453.647.307 1.511.67 2.476.732l.177.006a2.12 2.12 0 0 0 1.624-.698c.158-.191.327-.352.504-.523l.366-.363c.279-.29.425-.628.425-.974s-.149-.684-.433-.965l-1.545-1.551h0zm1.007 2.963l-.343.343-.543.563c-.284.304-.619.447-1.058.447-.042 0-.087 0-.129-.003-.836-.053-1.612-.38-2.195-.658-1.593-.771-2.991-1.866-4.154-3.253-.96-1.157-1.601-2.226-2.026-3.374-.262-.701-.357-1.247-.315-1.762a1.29 1.29 0 0 1 .388-.836l.96-.96c.138-.129.284-.2.428-.2.177 0 .321.107.411.197l.008.008.507.504.267.273.768.768c.298.298.298.574 0 .872L4.6 4.73l-.706.687a.58.58 0 0 0-.16.653l.008.025c.2.484.481.94.909 1.483l.003.003c.777.957 1.596 1.703 2.499 2.274.115.073.234.132.346.189l.279.149c.011.006.022.014.034.02a.61.61 0 0 0 .279.07c.234 0 .38-.146.428-.194l.962-.962c.096-.096.248-.211.425-.211s.318.11.405.205l.006.006 1.551 1.551c.29.287.29.583.003.881h-.001zM7.529 3.505c.737.124 1.416.476 1.942 1.007s.882 1.205 1.007 1.942c.031.186.191.315.374.315.023 0 .042-.003.065-.006a.38.38 0 0 0 .247-.155.38.38 0 0 0 .065-.284 4.34 4.34 0 0 0-1.218-2.35 4.34 4.34 0 0 0-2.35-1.219c-.208-.034-.402.104-.439.31s.099.405.307.439zm6.112 2.71a7.14 7.14 0 0 0-2.006-3.869A7.14 7.14 0 0 0 7.766.339a.38.38 0 0 0-.436.31.38.38 0 0 0 .312.439c1.311.222 2.507.844 3.459 1.793s1.57 2.147 1.793 3.459c.031.186.191.315.374.315.023 0 .042-.003.065-.006.049-.008.096-.025.138-.051s.079-.06.108-.101a.37.37 0 0 0 .06-.134c.011-.048.012-.098.004-.147h0z"/>
                </g>
            </g>
        </symbol>
        <symbol viewBox="0 0 21 21" id="loop-ico">
            <g fill-rule="evenodd">
                <g>
                    <path d="M9 0C13.968 0 18 4.032 18 9C18 13.968 13.968 18 9 18C4.032 18 0 13.968 0 9C0 4.032 4.032 0 9 0ZM9 16C12.867 16 16 12.867 16 9C16 5.132 12.867 2 9 2C5.132 2 2 5.132 2 9C2 12.867 5.132 16 9 16ZM17.485 16.071L20.314 18.899L18.899 20.314L16.071 17.485L17.485 16.071Z" />
                </g>
            </g>
        </symbol>
        <symbol viewBox="0 0 19 16" id="telegramm-ico">
            <g fill-rule="evenodd">
                <g>
                    <path d="M4.38028 9.27069L6.64444 14.9307L9.59208 11.9831L14.646 16L18.2044 0L0 7.58278L4.38028 9.27069ZM13.0025 4.59056L7.43042 9.67292L6.73639 12.2886L5.45431 9.08278L13.0025 4.59056Z" />
                </g>
            </g>
        </symbol>
        <symbol viewBox="0 0 21 20" id="watsup-ico">
            <g fill-rule="evenodd">
                <g>
                    <path d="M20.7 9.74272C20.7 15.1231 16.3043 19.4848 10.8809 19.4848C9.15986 19.4848 7.54314 19.0446 6.13576 18.2737L0.699951 20L2.47189 14.7716C1.57842 13.3042 1.06386 11.5812 1.06386 9.74207C1.06451 4.36169 5.45881 0 10.8822 0C16.305 0.00130433 20.7 4.36234 20.7 9.74272ZM10.8803 1.55346C6.3288 1.55346 2.62645 5.22777 2.62645 9.74468C2.62645 11.5368 3.21079 13.1959 4.19883 14.5459L3.1684 17.587L6.33924 16.5794C7.64357 17.435 9.20421 17.9333 10.8803 17.9333C15.4317 17.9333 19.1354 14.2596 19.1354 9.74272C19.1367 5.22777 15.4324 1.55346 10.8803 1.55346ZM15.8394 11.9868C15.778 11.8883 15.6176 11.8283 15.3776 11.7084C15.1383 11.5884 13.9533 11.0112 13.7335 10.9329C13.5118 10.8527 13.3513 10.8123 13.1909 11.0516C13.0324 11.291 12.5707 11.8284 12.4292 11.9888C12.289 12.1486 12.1487 12.1688 11.9081 12.0507C11.6674 11.9294 10.8914 11.679 9.97181 10.8658C9.25638 10.2318 8.77312 9.4512 8.63356 9.21186C8.49204 8.97316 8.61921 8.84403 8.73856 8.72534C8.84617 8.61773 8.97921 8.44621 9.09986 8.306C9.22051 8.16709 9.26029 8.06861 9.34051 7.90883C9.41942 7.74905 9.37964 7.61014 9.32029 7.48948C9.26029 7.36949 8.77965 6.19559 8.57813 5.71755C8.37791 5.24016 8.1777 5.31907 8.03683 5.31907C7.89661 5.31907 7.73618 5.29951 7.57575 5.29951C7.41531 5.29951 7.15445 5.35755 6.93467 5.5969C6.71489 5.83624 6.09272 6.41341 6.09272 7.58861C6.09272 8.76512 6.95423 9.89924 7.07488 10.0584C7.19618 10.2168 8.74052 12.7075 11.1868 13.6635C13.6344 14.619 13.6344 14.3001 14.0752 14.2596C14.5174 14.2192 15.4996 13.6825 15.6991 13.1255C15.9 12.566 15.9 12.0866 15.8394 11.9868Z" />
                </g>
            </g>
        </symbol>
        <symbol viewBox="0 0 17 24" id="fire-ico">
            <g fill-rule="evenodd">
                <g>
                    <path d="M8.37138 24C6.69378 23.9999 5.05492 23.4957 3.66728 22.553C2.27963 21.6102 1.20721 20.2723 0.589069 18.7128C-0.0290765 17.1532 -0.164439 15.4439 0.200533 13.8065C0.565505 12.1691 1.41398 10.6791 2.63594 9.52967C4.13399 8.11981 7.81324 5.5814 7.2551 0C13.9528 4.46512 17.3016 8.93023 10.6039 15.6279C11.7202 15.6279 13.3946 15.6279 16.1853 12.8707C16.4867 13.7336 16.7435 14.6612 16.7435 15.6279C16.7435 17.8483 15.8614 19.9778 14.2913 21.5479C12.7213 23.1179 10.5918 24 8.37138 24Z" />
                </g>
            </g>
        </symbol>
        <symbol viewBox="0 0 11 22" id="arrow-left-ico">
            <g fill-rule="evenodd">
                <g>
                    <path d="M10 1L2 11L10 21" stroke-width="2" />
                </g>
            </g>
        </symbol>
        <symbol viewBox="0 0 24 24" id="arrow-link-ico">
            <g fill-rule="evenodd">
                <g>
                    <path d="M16.172 10.9999L10.808 5.63592L12.222 4.22192L20 11.9999L12.222 19.7779L10.808 18.3639L16.172 12.9999H4V10.9999H16.172Z" />
                </g>
            </g>
        </symbol>
        <symbol viewBox="0 0 11 22" id="arrow-right-ico">
            <g fill-rule="evenodd">
                <g>
                    <path d="M1 1L9 11L1 21" stroke-width="2" />
                </g>
            </g>
        </symbol>
        <symbol viewBox="0 0 11 22" id="arrow-right-slim-ico">
            <g fill-rule="evenodd">
                <g>
                    <path d="M1 1L9 11L1 21" stroke-width="1" />
                </g>
            </g>
        </symbol>
        <symbol viewBox="0 0 18 14" id="youtube-ico">
            <g fill-rule="evenodd">
                <path d="M17.2092 1.82304C16.5722 1.06089 15.3961 0.75 13.1501 0.75H4.99683C2.69935 0.75 1.50334 1.08094 0.868729 1.89236C0.25 2.6835 0.25 3.84919 0.25 5.46252V8.53753C0.25 11.6631 0.984118 13.25 4.99683 13.25H13.1501C15.0979 13.25 16.1772 12.9757 16.8755 12.3031C17.5915 11.6133 17.8971 10.4872 17.8971 8.53753V5.46252C17.8971 3.76112 17.8492 2.58857 17.2092 1.82304ZM11.5795 7.42456L7.87712 9.3721C7.79434 9.41565 7.70383 9.43725 7.61343 9.43725C7.51108 9.43725 7.40896 9.40952 7.3185 9.3544C7.14818 9.25052 7.04417 9.06471 7.04417 8.86429V4.9817C7.04417 4.78162 7.14789 4.59598 7.31787 4.49205C7.48791 4.38811 7.69939 4.38101 7.87581 4.47325L11.5782 6.40825C11.7665 6.50668 11.8848 6.70241 11.8851 6.91595C11.8853 7.12966 11.7676 7.32567 11.5795 7.42456Z" />
            </g>
        </symbol>
        <symbol viewBox="0 0 18 18" id="instagramm-ico">
            <g fill-rule="evenodd">
                <path d="M12.375 0H5.625C2.51888 0 0 2.51888 0 5.625V12.375C0 15.4811 2.51888 18 5.625 18H12.375C15.4811 18 18 15.4811 18 12.375V5.625C18 2.51888 15.4811 0 12.375 0ZM16.3125 12.375C16.3125 14.5463 14.5463 16.3125 12.375 16.3125H5.625C3.45375 16.3125 1.6875 14.5463 1.6875 12.375V5.625C1.6875 3.45375 3.45375 1.6875 5.625 1.6875H12.375C14.5463 1.6875 16.3125 3.45375 16.3125 5.625V12.375Z" />
                <path d="M9 4.5C6.51487 4.5 4.5 6.51487 4.5 9C4.5 11.4851 6.51487 13.5 9 13.5C11.4851 13.5 13.5 11.4851 13.5 9C13.5 6.51487 11.4851 4.5 9 4.5ZM9 11.8125C7.44975 11.8125 6.1875 10.5503 6.1875 9C6.1875 7.44863 7.44975 6.1875 9 6.1875C10.5503 6.1875 11.8125 7.44863 11.8125 9C11.8125 10.5503 10.5503 11.8125 9 11.8125Z" />
                <path d="M13.8374 4.76175C14.1686 4.76175 14.437 4.49329 14.437 4.16212C14.437 3.83096 14.1686 3.5625 13.8374 3.5625C13.5063 3.5625 13.2378 3.83096 13.2378 4.16212C13.2378 4.49329 13.5063 4.76175 13.8374 4.76175Z" />
            </g>
        </symbol>
        <symbol viewBox="0 0 18 16" id="fb-ico">
            <g fill-rule="evenodd">
                <path d="M5,5.5v-2a1,1,0,0,1,1-1H7V0H5A3,3,0,0,0,2,3V5.5H0V8H2v8H5V8H7L8,5.5Z" />
            </g>
        </symbol>
        <symbol viewBox="0 0 18 22" id="location-ico">
            <g fill-rule="evenodd">
                <path d="M9 21.7279L2.636 15.3639C1.37734 14.1052 0.520187 12.5016 0.172928 10.7558C-0.17433 9.00995 0.00390685 7.20035 0.685099 5.55582C1.36629 3.91129 2.51984 2.50569 3.99988 1.51677C5.47992 0.527838 7.21998 0 9 0C10.78 0 12.5201 0.527838 14.0001 1.51677C15.4802 2.50569 16.6337 3.91129 17.3149 5.55582C17.9961 7.20035 18.1743 9.00995 17.8271 10.7558C17.4798 12.5016 16.6227 14.1052 15.364 15.3639L9 21.7279ZM13.95 13.9499C14.9289 12.9709 15.5955 11.7236 15.8656 10.3658C16.1356 9.00795 15.9969 7.60052 15.4671 6.32148C14.9373 5.04244 14.04 3.94923 12.8889 3.18009C11.7378 2.41095 10.3844 2.00043 9 2.00043C7.61557 2.00043 6.26222 2.41095 5.11109 3.18009C3.95996 3.94923 3.06275 5.04244 2.53292 6.32148C2.00308 7.60052 1.86442 9.00795 2.13445 10.3658C2.40449 11.7236 3.07111 12.9709 4.05 13.9499L9 18.8999L13.95 13.9499ZM9 10.9999C8.46957 10.9999 7.96086 10.7892 7.58579 10.4141C7.21072 10.0391 7 9.53035 7 8.99992C7 8.46949 7.21072 7.96078 7.58579 7.58571C7.96086 7.21064 8.46957 6.99992 9 6.99992C9.53044 6.99992 10.0391 7.21064 10.4142 7.58571C10.7893 7.96078 11 8.46949 11 8.99992C11 9.53035 10.7893 10.0391 10.4142 10.4141C10.0391 10.7892 9.53044 10.9999 9 10.9999Z" />
            </g>
        </symbol>
        <symbol viewBox="0 0 19 10" id="vk-ico">
            <g fill-rule="evenodd">
                <path d="M18.1988 9.0311C18.1776 8.98536 18.1578 8.94742 18.1394 8.91702C17.8354 8.36934 17.2542 7.6971 16.3964 6.9001L16.3783 6.88185L16.3692 6.8729L16.3601 6.86373H16.3509C15.9616 6.49261 15.715 6.24307 15.6118 6.11532C15.4229 5.87195 15.3806 5.62561 15.4838 5.37602C15.5567 5.18743 15.8307 4.78918 16.3051 4.1807C16.5547 3.85823 16.7523 3.59977 16.8982 3.40506C17.9508 2.00572 18.4071 1.11153 18.2671 0.722125L18.2128 0.631127C18.1762 0.576343 18.0819 0.526225 17.93 0.480518C17.7778 0.434907 17.5831 0.427364 17.3458 0.45776L14.7177 0.475915C14.6751 0.460829 14.6143 0.462235 14.5351 0.480518C14.456 0.4988 14.4164 0.507974 14.4164 0.507974L14.3707 0.530827L14.3344 0.558283C14.304 0.576438 14.2705 0.60837 14.234 0.654013C14.1976 0.699496 14.1672 0.752873 14.1429 0.813699C13.8568 1.54984 13.5315 2.23426 13.1664 2.86693C12.9413 3.24419 12.7345 3.57114 12.5457 3.84797C12.3572 4.1247 12.199 4.32859 12.0713 4.45929C11.9435 4.59011 11.8281 4.69492 11.7245 4.77409C11.621 4.85329 11.542 4.88676 11.4873 4.87452C11.4325 4.86228 11.3809 4.85013 11.332 4.83798C11.2469 4.7832 11.1784 4.70869 11.1268 4.6144C11.075 4.52011 11.0401 4.40144 11.0218 4.25847C11.0037 4.1154 10.9929 3.99234 10.9899 3.88888C10.987 3.78554 10.9883 3.63938 10.9945 3.4508C11.0008 3.26212 11.0037 3.13446 11.0037 3.06753C11.0037 2.83631 11.0082 2.58537 11.0172 2.31464C11.0264 2.04392 11.0339 1.82941 11.0401 1.67139C11.0463 1.51321 11.0492 1.34585 11.0492 1.16941C11.0492 0.992979 11.0384 0.854611 11.0172 0.754184C10.9963 0.653884 10.9641 0.556526 10.9217 0.462139C10.879 0.367849 10.8165 0.294909 10.7346 0.24313C10.6525 0.191414 10.5504 0.150373 10.4289 0.119881C10.1064 0.0469095 9.69578 0.00743533 9.19681 0.00129845C8.06529 -0.0108474 7.33823 0.0622196 7.01579 0.220404C6.88803 0.287238 6.77242 0.378556 6.66905 0.49407C6.55952 0.627962 6.54424 0.70103 6.62332 0.713048C6.9884 0.767736 7.24685 0.89856 7.39896 1.10539L7.45377 1.21499C7.49641 1.29407 7.53899 1.43407 7.58159 1.63479C7.62414 1.83552 7.65159 2.05757 7.66368 2.3008C7.69404 2.74499 7.69404 3.12522 7.66368 3.44153C7.63321 3.75796 7.60445 4.0043 7.57699 4.18073C7.54954 4.35717 7.5085 4.50014 7.45377 4.60961C7.39896 4.71911 7.36249 4.78605 7.34421 4.81034C7.32596 4.83463 7.31074 4.84994 7.29866 4.85595C7.21958 4.88625 7.13734 4.90169 7.05223 4.90169C6.96698 4.90169 6.86361 4.85905 6.74196 4.77384C6.62034 4.68862 6.49412 4.57157 6.3633 4.4225C6.23247 4.27339 6.08493 4.06503 5.92061 3.79737C5.75642 3.52971 5.58606 3.21338 5.40962 2.84836L5.26365 2.58364C5.17239 2.41334 5.04774 2.16538 4.88955 1.83996C4.73127 1.51442 4.59137 1.19952 4.46975 0.895332C4.42114 0.767576 4.3481 0.670314 4.25078 0.603383L4.2051 0.575927C4.17474 0.551635 4.12599 0.525841 4.05913 0.498353C3.99216 0.470897 3.92229 0.451208 3.84923 0.439094L1.3488 0.457249C1.09329 0.457249 0.919924 0.515133 0.828638 0.630743L0.792105 0.685432C0.773854 0.715892 0.764648 0.76454 0.764648 0.831502C0.764648 0.898432 0.782899 0.980577 0.819433 1.07784C1.18445 1.93572 1.5814 2.76308 2.01027 3.56005C2.43915 4.35701 2.81184 4.99898 3.12811 5.48539C3.44445 5.97216 3.76689 6.43156 4.09544 6.86338C4.42398 7.29535 4.64146 7.57219 4.74786 7.6938C4.85439 7.81565 4.93807 7.90674 4.9989 7.96757L5.22708 8.18654C5.37309 8.33258 5.58749 8.50748 5.8704 8.71125C6.15337 8.91514 6.46663 9.11586 6.81036 9.31375C7.15415 9.51131 7.55411 9.67253 8.01044 9.79722C8.46671 9.92203 8.9108 9.97212 9.34278 9.94795H10.3923C10.6051 9.92957 10.7663 9.86265 10.8759 9.74713L10.9123 9.70139C10.9367 9.66508 10.9595 9.60867 10.9806 9.53276C11.002 9.45672 11.0126 9.37294 11.0126 9.28181C11.0064 9.02026 11.0263 8.78454 11.0718 8.57467C11.1173 8.36486 11.1691 8.20668 11.2271 8.10015C11.285 7.99371 11.3504 7.9039 11.4232 7.83108C11.4962 7.75811 11.5481 7.71391 11.5786 7.69869C11.6089 7.68338 11.6331 7.673 11.6514 7.66676C11.7974 7.61812 11.9692 7.66523 12.1671 7.80833C12.3649 7.9513 12.5504 8.12783 12.7238 8.33763C12.8972 8.54763 13.1056 8.78323 13.3489 9.04478C13.5923 9.30643 13.8052 9.50092 13.9877 9.62887L14.1701 9.73837C14.2919 9.81144 14.4501 9.87837 14.6448 9.9392C14.8392 9.99999 15.0095 10.0152 15.1557 9.98481L17.4918 9.94837C17.7229 9.94837 17.9027 9.91011 18.0302 9.8342C18.158 9.75816 18.2339 9.67438 18.2584 9.58326C18.2828 9.49203 18.2841 9.38854 18.263 9.27283C18.2414 9.15742 18.2201 9.07671 18.1988 9.0311Z" />
            </g>
        </symbol>
        <symbol viewBox="0 0 14 16" id="compare-ico">
            <g fill-rule="evenodd">
                <rect y="6" width="2" height="10" />
                <rect x="6" width="2" height="16" />
                <rect x="12" y="4" width="2" height="12" />
            </g>
        </symbol>
        <symbol viewBox="0 0 70 27" id="car-combi">
            <g fill-rule="evenodd">
                <g>
                    <path d="M43 13V6H52L56 13M43 13H56M43 13V18M56 13V23M11 19V23H45" style="fill:none" stroke-width="2" />
                    <path d="M26 23H57" style="fill:none" stroke-width="2" />
                    <circle r="3" transform="matrix(-1 0 0 1 49 23)" fill="white" stroke-width="2" />
                    <circle r="3" transform="matrix(-1 0 0 1 20 23)" fill="white" stroke-width="2" />
                    <path d="M65 26C64.1445 26 63.3033 25.7805 62.5569 25.3625C61.8105 24.9445 61.1838 24.3419 60.7368 23.6125C60.2898 22.8831 60.0374 22.0511 60.0039 21.1963C59.9703 20.3415 60.1566 19.4923 60.545 18.73C60.9334 17.9678 61.5108 17.3179 62.2221 16.8427C62.9335 16.3674 63.7548 16.0825 64.6077 16.0154C65.4606 15.9483 66.3164 16.1011 67.0933 16.4593C67.8702 16.8174 68.5422 17.369 69.0451 18.0611" style="fill:none" stroke-width="2" />
                    <path d="M56 20L60 20" style="fill:none" stroke-width="2" />
                    <path fill-rule="evenodd" clip-rule="evenodd" d="M7.11149 14L7.24074 14.1508L10.2407 17.6508L10.5401 18H11H40H41V17V2.99998V1.81952L39.8356 2.01359L36 2.65285V3.66665V4.68044L39 4.18044V16H11.4599L9.74565 14H7.11149ZM34 3.99998V3.66665V2.98619L33.8356 3.01359L34 3.99998ZM7 8.99998V12H9V8.99998H7Z" style="stroke:none" />
                    <path d="M34 4.66667V1H8V12H34V4.66667Z" style="fill:none" stroke-width="2" />
                    <path d="M1 16H5V8H3L1 11V16ZM1 16V21" style="fill:none" stroke-width="2" />
                </g>
            </g>
        </symbol>
        <symbol viewBox="0 0 52 35" id="car-vacoom">
            <g fill-rule="evenodd">
                <g>
                    <path d="M38 13V6H47L51 13M38 13H51M38 13V19H19M51 13V23H34M8 19H6V23H22" style="fill:none" stroke-width="2" />
                    <circle r="3" transform="matrix(-1 0 0 1 44 23)" fill="white" stroke-width="2" />
                    <circle r="3" transform="matrix(-1 0 0 1 13 23)" fill="white" stroke-width="2" />
                    <path d="M35 1V16H1V1H35Z" style="fill:none" stroke-width="2" />

                    <path d="M28 22V26" style="fill:none" stroke-width="2" />
                    <path d="M31 22V27" style="fill:none" stroke-width="2" />
                    <path d="M25 22V27" style="fill:none" stroke-width="2" />
                </g>
            </g>
        </symbol>
        <symbol viewBox="0 0 52 27" id="car-snow">
            <g fill-rule="evenodd">
                <g>
                    <path d="M35 6V3L32 1H29M29 1H19V6.5L32 13L29 1Z" fill="none" stroke-width="2" />
                    <path d="M51 23V19H43L16 5H1V9.00004H16L43 23H51Z" fill="none" stroke-width="2" />
                    <path d="M5 12V23H32H37" stroke="#17181A" fill="none" stroke-width="2" />
                    <circle r="3" fill="none" transform="matrix(-1 0 0 1 28 23)" style="fill:none" stroke-width="2" />
                    <circle r="3" fill="none" transform="matrix(-1 0 0 1 13 23)" style="fill:none" stroke-width="2" />
                </g>
            </g>
        </symbol>
        <symbol viewBox="0 0 24 24" id="arrow-r-slim">
            <g fill-rule="evenodd">
                <g>
                    <path d="M16.172 10.9999L10.808 5.63592L12.222 4.22192L20 11.9999L12.222 19.7779L10.808 18.3639L16.172 12.9999H4V10.9999H16.172Z" />
                </g>
            </g>
        </symbol>
        <symbol viewBox="0 0 12 9" id="hamburger">
            <g fill-rule="evenodd">
                <g>
                    <rect width="12" height="1" />
                    <rect y="4" width="12" height="1" />
                    <rect y="8" width="12" height="1" />
                </g>
            </g>
        </symbol>
        <symbol viewBox="0 0 20 18" id="download-ico">
            <g fill-rule="evenodd">
                <g>
                    <path d="M10.414 2H19C19.2652 2 19.5196 2.10536 19.7071 2.29289C19.8946 2.48043 20 2.73478 20 3V17C20 17.2652 19.8946 17.5196 19.7071 17.7071C19.5196 17.8946 19.2652 18 19 18H1C0.734784 18 0.48043 17.8946 0.292893 17.7071C0.105357 17.5196 0 17.2652 0 17V1C0 0.734784 0.105357 0.48043 0.292893 0.292893C0.48043 0.105357 0.734784 0 1 0H8.414L10.414 2ZM2 2V16H18V4H9.586L7.586 2H2ZM11 10H14L10 14L6 10H9V6H11V10Z" fill="#0F3599" />
                </g>
            </g>
        </symbol>
        <symbol viewBox="0 0 18 14" id="vector-arrow-l-ico">
            <g fill-rule="evenodd">
                <g>
                    <path d="M8 1L2 7M2 7L8 13M2 7H18" stroke-width="2" />
                </g>
            </g>
        </symbol>
        <symbol viewBox="0 0 18 14" id="vector-arrow-r-ico">
            <g fill-rule="evenodd">
                <g>
                    <path d="M10 1L16 7M16 7L10 13M16 7H0" stroke-width="2" />
                </g>
            </g>
        </symbol>
        <symbol viewBox="0 0 64 64" id="rule-ico">
            <g fill-rule="evenodd">
                <g>
                    <circle cx="32" cy="32" r="31.5" style="fill:none" />
                    <path d="M47.9995 32C47.9995 40.8225 40.8222 48 32.0001 48C23.1776 48 16 40.8225 16 32C16 23.1776 23.1776 16 32.0001 16C40.8222 16 47.9995 23.1776 47.9995 32ZM30.6521 36.4861C29.1514 36.0344 27.9657 34.8488 27.514 33.348H18.7638C19.3968 39.6101 24.3901 44.6033 30.6521 45.2363V36.4861ZM45.2359 33.348H36.486C36.0343 34.8486 34.8485 36.0343 33.3481 36.4861V45.2363C39.6099 44.6033 44.603 39.6101 45.2359 33.348ZM45.2359 30.652C44.5583 23.9468 38.8808 18.696 32.0001 18.696C25.1192 18.696 19.4414 23.9468 18.7638 30.652H27.514C28.0942 28.7242 29.8857 27.3163 32.0001 27.3163C34.1143 27.3163 35.9058 28.7242 36.486 30.652H45.2359Z" style="stroke:none" />
                </g>
            </g>
        </symbol>
        <symbol viewBox="0 0 64 64" id="loc-circle-ico">
            <g fill-rule="evenodd">
                <g>
                    <circle cx="32" cy="32" r="31.5" style="fill:none" />
                    <circle cx="32" cy="30" r="3" style="stroke:none" />
                    <path d="M23.0556 38C21.1554 35.877 20 33.0734 20 30C20 23.3726 25.3726 18 32 18C38.6274 18 44 23.3726 44 30C44 33.0734 42.8446 35.877 40.9444 38L32 47L23 38" style="fill:none" stroke="#0f3599" stroke-width="2" />
                </g>
            </g>
        </symbol>
        <symbol viewBox="0 0 64 64" id="rub-circle-ico">
            <g fill-rule="evenodd">
                <g>
                    <path opacity="0.2" d="M44.8576 3.24361L44.2254 4.59947L44.6786 4.81078L42.9881 8.43601L42.5349 8.2247L40.8445 11.8499L41.2976 12.0612L39.6071 15.6865L39.154 15.4752L37.4635 19.1004L37.9167 19.3117L36.2262 22.9369L35.773 22.7256L34.0826 26.3509L34.5357 26.5622L32.8452 30.1874L32.3921 29.9761L31.5469 31.7887L31.3933 32.1179L31.659 32.3657L33.1217 33.7297L33.4627 33.364L36.3881 36.092L36.0471 36.4577L38.9725 39.1857L39.3135 38.82L42.239 41.548L41.898 41.9137L44.8234 44.6417L45.1644 44.276L48.0898 47.004L47.7488 47.3697L50.6742 50.0976L51.0152 49.732L53.9406 52.46L53.5996 52.8256L54.6937 53.8459C54.3083 54.2464 53.9129 54.6359 53.5081 55.0142L53.8495 55.3795C52.7754 56.3833 51.636 57.3095 50.4401 58.1527L50.152 57.744C48.9721 58.576 47.7363 59.3259 46.4536 59.9883L46.683 60.4326C45.3829 61.104 44.0352 61.687 42.6489 62.1762L42.4825 61.7047C41.8034 61.9443 41.1149 62.1611 40.418 62.3544C39.7211 62.5476 39.0193 62.7164 38.3138 62.8608L38.414 63.3506C36.9737 63.6453 35.5183 63.8397 34.0581 63.9338L34.0259 63.4348C32.5852 63.5276 31.1397 63.5213 29.6999 63.4159L29.6633 63.9146C28.204 63.8078 26.7503 63.6007 25.3127 63.2935L25.4172 62.8045C24.7129 62.654 24.0126 62.4791 23.3174 62.2798C22.6223 62.0804 21.9357 61.8576 21.2587 61.6121L21.0882 62.0821C19.7062 61.5808 18.3637 60.9861 17.0695 60.3034L17.3027 59.8611C16.0258 59.1875 14.7966 58.4269 13.624 57.5847L13.3324 57.9908C12.1439 57.1372 11.0126 56.2011 9.94735 55.188L10.2919 54.8257C9.77009 54.3294 9.26435 53.8143 8.77577 53.2811C8.2872 52.7479 7.81817 52.1992 7.36924 51.6361L6.97828 51.9478C6.06187 50.7983 5.22793 49.5897 4.48117 48.3314L4.91115 48.0762C4.17434 46.8347 3.52374 45.5439 2.96398 44.2131L2.50309 44.407C1.93576 43.0582 1.46029 41.6689 1.08136 40.2485L1.56446 40.1196C1.37883 39.4238 1.21674 38.7204 1.07875 38.0105C0.940763 37.3006 0.827546 36.5877 0.738998 35.873L0.242792 35.9345C0.0620339 34.4755 -0.0175364 33.0093 0.00321962 31.5462L0.503169 31.5533C0.523649 30.1098 0.643345 28.6693 0.861406 27.2421L0.367142 27.1666C0.588151 25.7201 0.908623 24.2872 1.3277 22.8781L1.80695 23.0206C2.01224 22.3303 2.24157 21.6459 2.49483 20.9685C2.7481 20.2911 3.02406 19.6241 3.32199 18.9684L2.86678 18.7616C3.47495 17.4232 4.17319 16.1315 4.95536 14.8948L5.37793 15.1621C6.14966 13.942 7.00438 12.7763 7.93599 11.6733L7.55402 11.3507C8.49824 10.2329 9.5202 9.17852 10.6138 8.19603L10.9479 8.56797C11.4836 8.08668 12.0368 7.62291 12.6067 7.17768C13.1765 6.73244 13.7604 6.30791 14.357 5.90455L14.0769 5.49034C15.2948 4.66694 16.565 3.9304 17.8781 3.28466L18.0987 3.73334C19.3943 3.09622 20.7321 2.54889 22.1027 2.09527L21.9456 1.62059C23.3348 1.16083 24.757 0.795824 26.2028 0.529506L26.2934 1.02123C27.0016 0.890772 27.7156 0.784369 28.4341 0.702503C29.1526 0.620636 29.8722 0.563704 30.5917 0.531503L30.5693 0.0320028C32.0379 -0.0337317 33.5059 0.00197995 34.9628 0.137465L34.9165 0.635317C36.354 0.768995 37.7807 1.00134 39.1864 1.33071L39.3004 0.843891C40.7251 1.17771 42.1285 1.60962 43.5004 2.13796L43.3207 2.60455C43.8377 2.80368 44.3502 3.01673 44.8576 3.24361Z" fill="#F4F4F4" stroke="#0F3599" stroke-dasharray="4 4" />
                    <path d="M62.8948 38.1453C61.7144 44.0794 58.1781 50.2285 53.9176 54.6246L31.7975 32.5045L32.4893 0.503798C38.5486 0.597882 44.4561 2.4381 49.5005 5.80871C54.6807 9.26997 58.7181 14.1896 61.1023 19.9455C63.4864 25.7013 64.1102 32.0349 62.8948 38.1453Z" fill="#F4F4F4" stroke="#0F3599" />
                    <circle cx="32" cy="32" r="31" fill="white" />
                    <path d="M32.416 21.6561C34.9973 21.6561 36.8853 22.2534 38.08 23.4481C39.1893 24.5574 39.744 25.9867 39.744 27.7361C39.744 29.4214 39.2107 30.7761 38.144 31.8001C36.928 32.9947 35.2107 33.5921 32.992 33.5921H30.912V36.4081H36.16V38.2001H30.912V43.0001H28.544V38.2001H26.112V36.4081H28.544V33.5921H26.112V31.4801H28.544V21.6561H32.416ZM30.912 23.8961V31.4801H32.864C34.464 31.4801 35.6587 31.0641 36.448 30.2321C37.0667 29.5494 37.376 28.6534 37.376 27.5441C37.376 26.5201 37.0773 25.7094 36.48 25.1121C35.6907 24.3014 34.4213 23.8961 32.672 23.8961H30.912Z" fill="#0F3599" />
                </g>
            </g>
        </symbol>



    </defs>
</svg>
