<svg xmlns="http://www.w3.org/2000/svg" width="526" height="541" fill="none"><style><![CDATA[.B{fill:#393f8e}.C{stroke-width:.22}.D{stroke-miterlimit:22.93}.E{stroke:#393f8e}]]></style><g fill-rule="evenodd"><g class="B"><path d="M295.65 27.62L262.59 8.49l-33.77 19.56-48.59-28-11.09 19.16 38.38 22.15v62.79L262.59 136l55.06-31.88V40.51l36.89-21.3L343.48 0l-47.83 27.62zM181.33 119.4l.18-.18v.29l81.08 46.35v69.7l-80.4-45.95.39 40.74-61.37 61.51H0l159.33-151.54v-.15l1.82-1.58 20.09-19.11v-.13h.09v.05zM160.4 171L55.93 269.61H112l48.38-48.5V171h.02zm102.19-5.12l81.3-46v.3l20.28 19.23L366 141l-3.59-2.18-42.77 31.21 18 21-75.08 44.44.03-69.59zM492.3 292.11v-31.19l32.88 31.19H492.3z"/><path d="M349.41 323.1a65.73 65.73 0 0 1-65.66-65.66l.08 2.55c.109 4.635.96 9.223 2.52 13.59l.6 1.63c.22.55.47 1.07.7 1.61.44 1.08 1 2.09 1.52 3.14 1.109 2.052 2.352 4.03 3.72 5.92 2.77 3.774 5.991 7.196 9.59 10.19a65.27 65.27 0 0 0 11.68 7.79 75.18 75.18 0 0 0 26.79 8l1.74.19 1.76.11 1.75.1 1.76.05h1.52c1.85 0 3.72-.11 5.56-.27 4.723-.478 9.365-1.564 13.81-3.23l1.65-.65c.55-.22 1.08-.48 1.62-.72 1.09-.47 2.13-1 3.19-1.58a56.49 56.49 0 0 0 6-3.77c1-.67 1.89-1.43 2.82-2.16.46-.37.9-.77 1.35-1.16s.89-.77 1.31-1.19l1.28-1.22 1.23-1.23L411.05 273l38.15-40v33.51l-8-8L413.73 286l.4.41c5.73 5.743 13.036 9.656 20.991 11.246s16.204.782 23.701-2.318 13.906-8.356 18.415-15.1 6.916-14.675 6.916-22.788-2.407-16.043-6.916-22.788-10.918-11.999-18.415-15.1-15.745-3.907-23.701-2.318a41 41 0 0 0-20.991 11.246l-43.83 43.85-8.74-8.74 7.09-6.74 21.18-20.41 14.06-13.68c2.25-2.308 4.652-4.463 7.19-6.45 2.541-1.939 5.256-3.64 8.11-5.08a51.39 51.39 0 0 1 8.88-3.5c3.061-.92 6.201-1.55 9.38-1.88 1.75-.17 3.52-.26 5.28-.26a52.63 52.63 0 0 1 13.62 1.79c6.151 1.64 11.943 4.411 17.08 8.17 5.132 3.752 9.538 8.408 13 13.74 3.488 5.313 5.954 11.231 7.27 17.45a53.35 53.35 0 0 1 .51 18.94c-.968 6.302-3.101 12.369-6.29 17.89a53.31 53.31 0 0 1-12.27 14.48c-4.962 4.063-10.63 7.178-16.72 9.19-5.387 1.759-11.023 2.641-16.69 2.61-.78 0-1.55 0-2.33-.05-6.474-.254-12.843-1.716-18.78-4.31-5.974-2.621-11.435-6.281-16.13-10.81l-9.14 9.14c-6.084 6.118-13.321 10.968-21.293 14.269a65.21 65.21 0 0 1-25.147 4.961l-.01.04zm-7.85-25.47c-6.307-1.207-12.242-3.879-17.327-7.8a41 41 0 0 1-11.949-14.774c-2.771-5.793-4.143-12.155-4.006-18.575a41 41 0 0 1 17.372-32.633 40.99 40.99 0 0 1 17.645-7.049c6.353-.936 12.837-.366 18.929 1.663s11.623 5.46 16.146 10.018l.4.41 8.74-8.74c-6.06-5.699-13.332-9.952-21.27-12.44a50.85 50.85 0 0 0-12.24-2.29 29.32 29.32 0 0 1-8.47.09c-1.21.11-2.42.26-3.61.44-1 .15-2 .38-3 .56a29.8 29.8 0 0 0-3 .76c-1 .29-2 .55-2.91.91l-1.44.5-1.41.57c-3.771 1.528-7.341 3.513-10.63 5.91a52.73 52.73 0 0 0-20.27 29.45c-1.16 4.52-11 3.4-10.67 8.11.08 1 2.19 6.14 2.37 7.13.31 2-.57 6.67.14 8.54s2.43 7.77 3.46 9.51 1.87 7.13 3.16 8.69c5.14 6.29 19.88 3.3 27.46 6.5a64.85 64.85 0 0 0 16.34 4.56l.04-.02zm7.82-95.11c-3.772.002-7.509-.731-11-2.16-3.508-1.453-6.703-3.568-9.41-6.23-2.718-2.663-4.883-5.837-6.37-9.34a29.62 29.62 0 0 1-1.893-16.928 29.61 29.61 0 0 1 7.743-15.172c2.703-2.84 5.929-5.132 9.5-6.75a31.24 31.24 0 0 1 11.49-2.73 31.44 31.44 0 0 1 11.48 2.73c3.571 1.618 6.797 3.91 9.5 6.75 4.011 4.188 6.704 9.462 7.744 15.166s.381 11.59-1.894 16.924c-2.222 5.273-5.954 9.771-10.726 12.928s-10.372 4.831-16.094 4.812h-.07zm0-47c-3.582 0-7.084 1.062-10.062 3.053a18.1 18.1 0 0 0-7.699 18.594 18.1 18.1 0 0 0 14.234 14.226 18.11 18.11 0 0 0 10.464-1.034c3.309-1.373 6.137-3.695 8.126-6.675s3.049-6.482 3.047-10.064a18.11 18.11 0 0 0-18.11-18.1z"/></g><g fill="#ff6e00"><path d="M349.42 323.1a65.79 65.79 0 0 1-41.141-14.522c-11.662-9.379-19.779-22.455-23.009-37.068h.38c.21.7.44 1.39.69 2.08l.6 1.64c.22.54.47 1.06.7 1.6.44 1.08 1 2.09 1.52 3.14 1.109 2.052 2.352 4.03 3.72 5.92 2.77 3.774 5.991 7.196 9.59 10.19a64.45 64.45 0 0 0 11.69 7.78 75.18 75.18 0 0 0 26.79 8l1.74.19 1.76.11 1.75.1 1.76.05h1.52c1.85 0 3.72-.11 5.56-.27 4.723-.478 9.365-1.564 13.81-3.23l1.65-.65c.55-.22 1.08-.48 1.62-.72 1.09-.47 2.13-1 3.19-1.58a56.49 56.49 0 0 0 6-3.77c1-.67 1.89-1.43 2.82-2.16.46-.37.9-.77 1.35-1.16s.89-.77 1.31-1.19l1.28-1.22 1.23-1.23L411.05 273l38.15-40v33.5l-8-8-45.35 45.35c-6.085 6.113-13.321 10.958-21.291 14.255a65.23 65.23 0 0 1-25.139 4.955v.04z"/><path d="M206.39 291.15l55.47 31.71v-58.68l-55.47-31.75v58.72zm55.47-27l27.14-14.8 14.28 49.82-41.39 23.69-.03-58.71z"/><path d="M443.08 323.1a65.2 65.2 0 0 1-25.143-4.967 65.19 65.19 0 0 1-21.287-14.273l-.4-.4 8.74-8.74a53.23 53.23 0 0 0 34.83 16.69l4 .15c5.335.001 10.642-.781 15.75-2.32 6.41-1.947 12.397-5.082 17.65-9.24 10.654-8.395 17.787-20.468 20-33.85a55.22 55.22 0 0 0-.43-20.06 54.53 54.53 0 0 0-18.994-31.19c-9.728-7.904-21.882-12.216-34.416-12.21a56.38 56.38 0 0 0-6.23.35c-6.682.767-13.159 2.789-19.09 5.96a54.66 54.66 0 0 0-8.38 5.48l-1.92 1.6s-1.27 1.09-1.85 1.68l-3.48 3.51-13.68 14.05-20.42 21.14-6.76 7.1-8.75-8.7 34.69-34.74a52.08 52.08 0 0 0-20.78-14 51.49 51.49 0 0 0-7.31-2.07l2.26-.85c3.871-1.605 7.385-3.965 10.334-6.942a31.56 31.56 0 0 0 6.846-10.398c1.572-3.826 2.362-7.928 2.323-12.065a30.99 30.99 0 0 0-2.545-12.019c-1.642-3.797-4.028-7.226-7.016-10.087a31 31 0 0 0-10.382-6.569l-2.88-.92s-2-.46-3-.64-2-.24-3-.32h-6l-3 .32-3 .64c-.975.257-1.937.564-2.88.92a30.77 30.77 0 0 0-10.27 6.45 30.88 30.88 0 0 0-8.939 16.023c-1.288 6.124-.685 12.494 1.729 18.267 1.558 3.901 3.881 7.451 6.831 10.441a31.52 31.52 0 0 0 10.349 6.969 34.52 34.52 0 0 0 1.59.61 52.57 52.57 0 0 0-9.6 2.74c-1.999.779-3.952 1.671-5.85 2.67a56.08 56.08 0 0 0-5.49 3.36 53.16 53.16 0 0 0-9.6 8.56 54.77 54.77 0 0 0-7.35 10.57 55.67 55.67 0 0 0-4.62 12 54.85 54.85 0 0 0-1 5.25c-4.825 1.635-8.891 4.969-11.44 9.38v-1a65.72 65.72 0 0 1 8.725-32.672 65.71 65.71 0 0 1 23.815-24.008c-5.13-6.273-8.374-13.872-9.355-21.916a42.81 42.81 0 0 1 19.608-41.363 42.81 42.81 0 0 1 45.774 0 42.81 42.81 0 0 1 19.608 41.363c-.981 8.044-4.225 15.643-9.355 21.916 4.836 2.85 9.291 6.301 13.26 10.27l.4.41.4-.41a65.67 65.67 0 0 1 27.373-16.411 65.68 65.68 0 0 1 31.877-1.568c10.593 2.107 20.503 6.793 28.851 13.645a65.66 65.66 0 0 1 19.012 25.635 65.67 65.67 0 0 1 4.682 31.57c-1.06 10.748-4.753 21.069-10.755 30.049a65.67 65.67 0 0 1-54.61 29.18h-.05zm-145.32-33.05l-.45-.2a13.28 13.28 0 0 1-.89-.3c.65.45 1.32.88 2 1.29l-.62-.79h-.04zm37.54 7.38a20.92 20.92 0 0 1-6.859 4.684c-2.576 1.087-5.345 1.647-8.141 1.646a80.05 80.05 0 0 0 7.7 2.61c4.358 1.19 8.812 2 13.31 2.42 2.59.23 5.19.38 7.78.38 1.897.01 3.793-.08 5.68-.27 4.447-.478 8.816-1.52 13-3.1l1.55-.62c.52-.19 1-.45 1.53-.67 1-.43 2-1 3-1.46 1.971-1.052 3.872-2.231 5.69-3.53.93-.63 1.78-1.34 2.67-2 .44-.35.85-.72 1.27-1.08s.86-.73 1.25-1.12l1.22-1.15 1.22-1.22 2.46-2.42 19.71-19.33 39.92-38.15h-33.5l8 8-45.35 45.36a40.67 40.67 0 0 1-13.296 8.91c-4.978 2.06-10.316 3.11-15.704 3.09h-2.63a64.98 64.98 0 0 1-11.48-1v.02z"/></g><g class="B"><path d="M396.25 303.47l8.74-8.74-8.74 8.74zm-85.79-16.61l2.82 2a56.18 56.18 0 0 0 11.37 5.68c7.098 2.6 14.601 3.92 22.16 3.9l2.63-.05c5.388.02 10.726-1.03 15.704-3.09a40.67 40.67 0 0 0 13.296-8.91L423.79 241l-8-8h33.5l-39.92 38.15-22.17 21.78-1.2 1.22-1.33 1.15c-.39.39-.82.75-1.25 1.12s-.83.73-1.27 1.08l-2.67 2c-1.818 1.299-3.719 2.478-5.69 3.53l-3 1.46-1.53.67-1.55.62c-4.184 1.58-8.553 2.622-13 3.1-1.887.19-3.783.28-5.68.27-2.59 0-5.19-.15-7.78-.38-4.498-.42-8.952-1.23-13.31-2.42-4.35-1.223-8.584-2.829-12.65-4.8l-5.94-3.26s-3.77-2.49-5.55-3.89c-3.597-2.759-6.841-5.949-9.66-9.5a53.42 53.42 0 0 1-1.58-2.06c3.647 2.83 8.134 4.361 12.75 4.35h1.1c1.364.02 2.727-.09 4.07-.33h-.02z"/><g class="C D E"><path d="M349.48 312.3H348l-1.76-.05-1.75-.1-1.76-.11-1.74-.18a75.18 75.18 0 0 1-26.79-8c-4.163-2.152-8.08-4.75-11.68-7.75-3.603-3.012-6.824-6.455-9.59-10.25-1.368-1.89-2.611-3.868-3.72-5.92l-1.52-3.08-.7-1.61-.6-1.63a43.43 43.43 0 0 1-2.56-13.62c1.64 28.26 30.37 50.76 65.58 50.76a53.07 53.07 0 0 0 20.405-4.045A53.1 53.1 0 0 0 387.1 295.14l62.08-62.08L411 273l-19.3 19.72-2.42 2.46-1.23 1.23-1.28 1.22c-.42.42-.87.8-1.31 1.19s-.89.79-1.35 1.16c-.93.73-1.84 1.49-2.82 2.16a56.49 56.49 0 0 1-6 3.77c-1.06.54-2.1 1.11-3.19 1.58-.54.24-1.07.5-1.62.72l-1.65.65a55.16 55.16 0 0 1-13.83 3.23c-1.82.1-3.69.21-5.54.21h.02z"/><path d="M349.42 310.75c-35.21 0-63.94-22.5-65.58-50.76.941 9.137 4.528 17.801 10.32 24.93 2.819 3.551 6.063 6.741 9.66 9.5 1.78 1.4 3.65 2.67 5.55 3.89a53.48 53.48 0 0 0 5.94 3.26c4.064 1.977 8.298 3.584 12.65 4.8 4.358 1.19 8.812 2 13.31 2.42 2.59.23 5.19.38 7.78.38 1.897.01 3.793-.08 5.68-.27 4.447-.478 8.816-1.52 13-3.1l1.55-.62c.52-.19 1-.45 1.54-.67 1-.43 2-1 3-1.46 1.971-1.052 3.872-2.231 5.69-3.53.93-.63 1.78-1.34 2.67-2 .44-.35.85-.72 1.27-1.08s.86-.73 1.25-1.12l1.22-1.15 1.22-1.22 2.46-2.42 19.71-19.33 39.92-38.15-16.73 16.73-45.39 45.35a53.1 53.1 0 0 1-17.285 11.575 53.07 53.07 0 0 1-20.405 4.045z"/></g></g><path d="M349.41 298.39c-2.635.002-5.264-.252-7.85-.76l7.85.76z" fill="#fdfdfd"/><g class="B C D E"><path d="M349.41 298.39a69.14 69.14 0 0 1-12.84-1.2c-23.23-4.42-40.46-20.53-40.46-39.75-.001-12.764 4.577-25.104 12.903-34.778s19.846-16.041 32.467-17.942c1.336.341 2.692.598 4.06.77-1.21.11-2.42.26-3.61.44-1 .15-2 .38-3 .56-1.012.202-2.014.455-3 .76-1 .29-2 .55-2.91.91l-1.44.5-1.41.57c-3.771 1.528-7.341 3.513-10.63 5.91a52.69 52.69 0 0 0-20.27 29.45c-1 3.925-1.55 7.951-1.64 12a12.51 12.51 0 0 0 0 1.5v1.49c.09 1 .16 2 .34 3 .309 1.976.819 3.916 1.52 5.79.689 1.888 1.549 3.709 2.57 5.44 1.002 1.762 2.153 3.435 3.44 5 5.304 6.28 12.05 11.183 19.66 14.29a64.85 64.85 0 0 0 16.34 4.56c2.586.508 5.215.762 7.85.76l.06-.03z"/><path d="M346.79 298.44c-7.559.02-15.062-1.3-22.16-3.9-3.984-1.463-7.791-3.369-11.35-5.68-1.789-1.169-3.493-2.462-5.1-3.87-.83-.68-1.58-1.46-2.36-2.18-.784-.739-1.515-1.531-2.19-2.37a37.22 37.22 0 0 1-6.72-11 31.92 31.92 0 0 1-1.77-6.28c-.22-1.08-.32-2.16-.44-3.25l-.08-1.64v-1.62a55.04 55.04 0 0 1 1.63-12.77c1.071-4.165 2.621-8.192 4.62-12a54.77 54.77 0 0 1 7.35-10.57 53.16 53.16 0 0 1 9.6-8.56 56.08 56.08 0 0 1 5.49-3.36c1.898-.999 3.851-1.891 5.85-2.67a52.57 52.57 0 0 1 9.6-2.74 33.04 33.04 0 0 0 2.73.84c-12.621 1.901-24.142 8.267-32.467 17.942s-12.904 22.014-12.903 34.778c0 19.22 17.23 35.33 40.46 39.75a69.14 69.14 0 0 0 12.84 1.2c-.88-.07-1.77-.05-2.63-.05z"/></g><path d="M387.51 220.15l-.26-.25.27.27-.01-.02z" fill="#fdfdfd"/><g class="B C D E"><path d="M387.5 220.13a55 55 0 0 0-21.27-12.44A50.76 50.76 0 0 0 354 205.4a31.87 31.87 0 0 0 3.34-.68 53 53 0 0 1 29.76 15l.13.13.27.28z"/><path d="M387.51 220.15l-.4-.4a53 53 0 0 0-29.76-15l2.07-.6a51.49 51.49 0 0 1 7.31 2.07 52.1 52.1 0 0 1 20.78 13.93zm-38.09-14.4a33.56 33.56 0 0 1-3.88-.26c-1.368-.172-2.724-.429-4.06-.77a53.43 53.43 0 0 1 15.87 0 31.87 31.87 0 0 1-3.34.68 33.42 33.42 0 0 1-4.59.35zm0-1.62a30.46 30.46 0 0 0 21.33-8.868c5.67-5.642 8.893-13.288 8.974-21.287s-2.99-15.707-8.545-21.462-13.153-9.092-21.149-9.293h-1.24c-7.997.202-15.594 3.542-21.15 9.298a30.46 30.46 0 0 0 .442 42.753 30.46 30.46 0 0 0 21.338 8.859zm0-60.92a31.44 31.44 0 0 1 11.48 2.73c3.571 1.618 6.797 3.91 9.5 6.75 4.011 4.188 6.704 9.462 7.744 15.166s.382 11.59-1.894 16.924c-2.222 5.273-5.954 9.771-10.726 12.928s-10.372 4.831-16.094 4.812c-3.772.002-7.509-.731-11-2.16-3.508-1.453-6.703-3.568-9.41-6.23-2.718-2.663-4.883-5.837-6.37-9.34a29.62 29.62 0 0 1-1.893-16.928 29.61 29.61 0 0 1 7.743-15.172c2.703-2.84 5.929-5.132 9.5-6.75a31.34 31.34 0 0 1 11.42-2.73z"/><path d="M357.35 204.72c-2.625-.391-5.276-.588-7.93-.59 8.079 0 15.826-3.209 21.538-8.922s8.922-13.46 8.922-21.538a30.46 30.46 0 0 0-8.719-21.33c-5.587-5.693-13.185-8.968-21.161-9.12h2.38c1 .08 2 .22 3 .32a26.72 26.72 0 0 1 3 .64c1 .22 1.92.61 2.88.92a30.77 30.77 0 0 1 10.27 6.45 31.14 31.14 0 0 1 7.3 34.31 31.57 31.57 0 0 1-6.849 10.44c-2.956 2.99-6.478 5.36-10.361 6.97-.74.31-1.5.59-2.26.85s-1.37.42-2.07.6h.06zm-15.87 0c2.629-.391 5.282-.589 7.94-.59A30.48 30.48 0 0 1 319 173.67a30.46 30.46 0 0 1 8.705-21.316c5.578-5.693 13.166-8.972 21.135-9.134h-2.37c-1 .08-2 .22-3 .32a30.73 30.73 0 0 0-5.88 1.56 30.77 30.77 0 0 0-10.27 6.45 31.1 31.1 0 0 0-7.32 34.31c1.558 3.901 3.881 7.451 6.831 10.441a31.52 31.52 0 0 0 10.349 6.969 34.52 34.52 0 0 0 1.59.61 33.04 33.04 0 0 0 2.73.84h-.02z"/></g><g fill="#ff6f00" stroke="#ff6f00" class="C D"><path d="M443.08 310.75a53.09 53.09 0 0 1-20.405-4.045 53.1 53.1 0 0 1-17.285-11.575l-.4-.4a55.15 55.15 0 0 0 16.14 10.81c5.936 2.597 12.306 4.063 18.78 4.32l2.33.05c5.659.012 11.284-.883 16.66-2.65a52.26 52.26 0 0 0 16.75-9.2A53.15 53.15 0 0 0 488 283.57c3.189-5.521 5.322-11.588 6.29-17.89a53.35 53.35 0 0 0-.51-18.94c-1.316-6.218-3.782-12.137-7.27-17.45-3.462-5.332-7.868-9.988-13-13.74-5.137-3.759-10.929-6.53-17.08-8.17a52.63 52.63 0 0 0-13.62-1.79c-1.76 0-3.53.09-5.28.26a50.64 50.64 0 0 0-9.36 1.84 52 52 0 0 0-17 8.58c-2.538 1.987-4.94 4.142-7.19 6.45l-14.13 13.68-14.12 13.6-7.08 6.85-7.11 6.76 43.85-43.9c6.199-6.201 13.831-10.777 22.221-13.323a53.31 53.31 0 0 1 25.878-1.273c8.599 1.71 16.644 5.514 23.422 11.076a53.31 53.31 0 0 1 19.234 46.439c-.86 8.726-3.859 17.105-8.731 24.394a53.32 53.32 0 0 1-19.2 17.397c-7.733 4.131-16.366 6.292-25.134 6.29v.04z"/><path d="M443.79 311.57c-1.335.025-2.671-.025-4-.15-13.276-1.016-25.689-6.971-34.79-16.69l.4.4c7.454 7.458 16.952 12.538 27.293 14.597s21.061 1.004 30.802-3.031a53.3 53.3 0 0 0 23.925-19.636c5.857-8.768 8.982-19.076 8.98-29.62s-3.123-20.852-8.98-29.62a53.3 53.3 0 0 0-23.925-19.636c-9.741-4.035-20.461-5.089-30.802-3.031s-19.839 7.139-27.293 14.597l-43.8 43.79 6.76-7.1 6.81-7.06 13.61-14.13 13.68-14.05 3.47-3.51c.59-.59 1.23-1.13 1.86-1.68s1.27-1.08 1.92-1.6a54.66 54.66 0 0 1 8.38-5.48c5.921-3.156 12.384-5.167 19.05-5.93 2.069-.231 4.148-.348 6.23-.35 12.534-.006 24.688 4.306 34.416 12.21a54.53 54.53 0 0 1 18.994 31.19 55.22 55.22 0 0 1 .43 20.06c-2.213 13.382-9.346 25.455-20 33.85-5.253 4.159-11.24 7.293-17.65 9.24-5.113 1.554-10.426 2.346-15.77 2.35v.02z"/></g><path d="M300.33 232.43c-20.89 42.67 17.51 85.07 54.14 80.48 15-1.88 29-5.06 39.58-13.42.67 1.063 1.429 2.066 2.27 3l.23.29c1.22 1.58-1.31-.78.3.4-12.44 9.74-18.91 17.29-42.38 19.4-15.24 1.37-40.7-7.37-56.67-25.94-1.1-1.29-2.15-4.68-3.16-6a59.08 59.08 0 0 1-9.34-19c-.17-.59-.24-1.27-.39-1.86-.981-3.872-1.508-7.846-1.57-11.84-.024-12.572 3.943-24.827 11.33-35a19.51 19.51 0 0 0 5.66 9.49z" fill="#ff6e00"/></g><path d="M84.13 417.59h-7.4V370.6H36.4v129.5h40.33v-50.135h7.4L95.045 500.1h40.33v-16.095l-18.13-52.355 14.985-44.955V370.6H93.75l-9.62 46.99zm58.594 82.51h91.575v-32.375h-45.51v-4.44l43.845-59.385v-33.3h-89.91v16.095l6.29 16.465h37.37v4.44l-43.66 59.385V500.1zm143.034-96.94h16.28v64.565h-16.28V403.16zm40.515 96.94c9.435 0 16.095-6.66 16.095-16.095v-97.31c0-9.435-6.66-16.095-16.095-16.095h-80.845v129.5h80.845zm79.831 0h33.855l9.99-62.16h3.33v62.16h39.405v-16.095L479.549 370.6h-45.325l-9.805 51.06h-2.775l-9.805-51.06h-45.14l-13.32 113.405V500.1h39.59v-62.16h3.145l9.99 62.16z" class="B"/></svg>