<svg xmlns="http://www.w3.org/2000/svg" width="30" height="30" fill="none"><path d="M29.328 23.729l-4.633-4.644c-.923-.921-2.451-.893-3.406.064l-2.334 2.339-.461-.257c-1.474-.819-3.491-1.94-5.614-4.07-2.129-2.134-3.25-4.159-4.069-5.637l-.251-.451 1.567-1.568.77-.773c.956-.959.983-2.49.062-3.414L6.325.674c-.921-.923-2.45-.895-3.406.064L1.614 2.054l.036.036C1.211 2.65.846 3.296.573 3.992a7.9 7.9 0 0 0-.479 1.929c-.612 5.083 1.706 9.729 7.995 16.033 8.694 8.713 15.701 8.055 16.003 8.023.658-.079 1.289-.236 1.93-.486a7.52 7.52 0 0 0 1.891-1.074l.029.025 1.323-1.298c.954-.959.982-2.49.062-3.416z" fill="#ff6e00"/></svg>