<svg xmlns="http://www.w3.org/2000/svg" xmlns:xlink="http://www.w3.org/1999/xlink" width="1920" height="209"
     fill="none"><mask id="A" mask-type="alpha" maskUnits="userSpaceOnUse" x="0" y="0" width="1920" height="209"><path fill="#0f3599" d="M0 0h1920v209H0z"/></mask><g mask="url(#A)"><path d="M1593.28-66.587l-213 375.343-2.06-3.505L1591.27-70l2.01 3.412z" fill="url(#B)"/><path d="M1598.94-56.996l-213 375.343-2.07-3.505 213.06-375.25 2.01 3.412z" fill="url(#C)"/><path d="M1604.6-47.403l-213 375.343-2.07-3.505 213.05-375.25 2.02 3.413z" fill="url(#D)"/><path d="M1610.25-37.812l-213 375.342-2.06-3.504 213.05-375.25 2.01 3.413z" fill="url(#E)"/><path d="M1615.91-28.22l-213 375.342-2.07-3.504 213.06-375.25 2.01 3.413z" fill="url(#F)"/><path opacity=".5" fill-rule="evenodd" d="M1676.95 112.5v59.08l-51.39 29.541-51.42-29.541V112.5l51.42-29.54 51.39 29.54zm-14.27 8.097v42.758l-37.19 21.379-37.21-21.379v-42.758l37.21-21.379 37.19 21.379z" fill="url(#G)"/><path fill-rule="evenodd" d="M1648-80.813V-8.44l-62.96 36.187-62.99-36.187v-72.373L1585.04-117 1648-80.813zm-17.48 9.919v52.379l-45.56 26.189-45.59-26.189v-52.379l45.59-26.189 45.56 26.189z" fill="url(#H)"/><path d="M1531.3 270.018l171.84-302.81 1.67 2.827-171.89 302.736-1.62-2.753z" fill="url(#I)"/><path d="M1526.74 262.279l171.84-302.81 1.66 2.828-171.88 302.735-1.62-2.753z" fill="url(#J)"/><path d="M1522.17 254.541l171.84-302.81 1.67 2.828-171.88 302.736-1.63-2.753z" fill="url(#K)"/><path d="M1517.61 246.803l171.84-302.81 1.67 2.827-171.89 302.736-1.62-2.753z" fill="url(#L)"/><path d="M1513.05 239.064l171.83-302.81 1.67 2.827-171.88 302.735-1.62-2.753z" fill="url(#M)"/><g style="mix-blend-mode:multiply"><path d="M1653.86 77V29l-42.15-24-42.17 24v48l42.17 24 42.15-24z" fill="url(#N)"/></g><path d="M397.283-144.587l-213 375.342-2.066-3.505L395.27-148l2.013 3.413z" fill="url(#O)"/><path d="M402.939-134.996L189.94 240.347l-2.067-3.505 213.054-375.25 2.012 3.412z" fill="url(#P)"/><path d="M408.596-125.404L195.597 249.939l-2.067-3.505 213.054-375.25 2.012 3.412z" fill="url(#Q)"/><path d="M414.253-115.812l-213 375.342-2.066-3.504 213.053-375.25 2.013 3.412z" fill="url(#R)"/><path d="M419.909-106.22L206.91 269.122l-2.067-3.504 213.054-375.25 2.012 3.412z" fill="url(#S)"/></g><defs><linearGradient id="B" x1="1379.26" y1="307.027" x2="1701.55" y2="116.964" xlink:href="#T"><stop stop-color="#fff" stop-opacity=".6"/><stop offset=".501" stop-color="#ffb77f" stop-opacity=".27"/><stop offset="1" stop-color="#ff6f00" stop-opacity="0"/></linearGradient><linearGradient id="C" x1="1384.92" y1="316.619" x2="1707.21" y2="126.556" xlink:href="#T"><stop stop-color="#fff" stop-opacity=".6"/><stop offset=".501" stop-color="#ffb77f" stop-opacity=".27"/><stop offset="1" stop-color="#ff6f00" stop-opacity="0"/></linearGradient><linearGradient id="D" x1="1390.58" y1="326.211" x2="1712.87" y2="136.148" xlink:href="#T"><stop stop-color="#fff" stop-opacity=".6"/><stop offset=".501" stop-color="#ffb77f" stop-opacity=".27"/><stop offset="1" stop-color="#ff6f00" stop-opacity="0"/></linearGradient><linearGradient id="E" x1="1396.23" y1="335.803" x2="1718.52" y2="145.74" xlink:href="#T"><stop stop-color="#fff" stop-opacity=".6"/><stop offset=".501" stop-color="#ffb77f" stop-opacity=".27"/><stop offset="1" stop-color="#ff6f00" stop-opacity="0"/></linearGradient><linearGradient id="F" x1="1401.89" y1="345.395" x2="1724.18" y2="155.332" xlink:href="#T"><stop stop-color="#fff" stop-opacity=".6"/><stop offset=".501" stop-color="#ffb77f" stop-opacity=".27"/><stop offset="1" stop-color="#ff6f00" stop-opacity="0"/></linearGradient><linearGradient id="G" x1="1685.98" y1="201" x2="1587.47" y2="105.12" xlink:href="#T"><stop stop-color="#ff6f00" stop-opacity="0"/><stop offset="1" stop-color="#ff6f00"/></linearGradient><linearGradient id="H" x1="1584.95" y1="-97.084" x2="1584.95" y2="7.685" xlink:href="#T"><stop offset=".719" stop-color="#ff6f00" stop-opacity="0"/><stop offset="1" stop-color="#ff6f00"/></linearGradient><linearGradient id="I" x1="1703.96" y1="-31.399" x2="1443.95" y2="121.936" xlink:href="#T"><stop stop-color="#fff" stop-opacity=".6"/><stop offset=".501" stop-color="#ffb77f" stop-opacity=".27"/><stop offset="1" stop-color="#ff6f00" stop-opacity="0"/></linearGradient><linearGradient id="J" x1="1699.4" y1="-39.137" x2="1439.39" y2="114.198" xlink:href="#T"><stop stop-color="#fff" stop-opacity=".6"/><stop offset=".501" stop-color="#ffb77f" stop-opacity=".27"/><stop offset="1" stop-color="#ff6f00" stop-opacity="0"/></linearGradient><linearGradient id="K" x1="1694.83" y1="-46.876" x2="1434.83" y2="106.459" xlink:href="#T"><stop stop-color="#fff" stop-opacity=".6"/><stop offset=".501" stop-color="#ffb77f" stop-opacity=".27"/><stop offset="1" stop-color="#ff6f00" stop-opacity="0"/></linearGradient><linearGradient id="L" x1="1690.27" y1="-54.614" x2="1430.26" y2="98.721" xlink:href="#T"><stop stop-color="#fff" stop-opacity=".6"/><stop offset=".501" stop-color="#ffb77f" stop-opacity=".27"/><stop offset="1" stop-color="#ff6f00" stop-opacity="0"/></linearGradient><linearGradient id="M" x1="1685.71" y1="-62.352" x2="1425.7" y2="90.983" xlink:href="#T"><stop stop-color="#fff" stop-opacity=".6"/><stop offset=".501" stop-color="#ffb77f" stop-opacity=".27"/><stop offset="1" stop-color="#ff6f00" stop-opacity="0"/></linearGradient><linearGradient id="N" x1="1653.86" y1="5.879" x2="1569.53" y2="5.879" xlink:href="#T"><stop stop-color="#fff" stop-opacity=".6"/><stop offset=".501" stop-color="#ffb77f" stop-opacity=".27"/><stop offset="1" stop-color="#ff6f00" stop-opacity="0"/></linearGradient><linearGradient id="O" x1="183.265" y1="229.027" x2="505.552" y2="38.964" xlink:href="#T"><stop stop-color="#fff" stop-opacity=".6"/><stop offset=".501" stop-color="#ffb77f" stop-opacity=".27"/><stop offset="1" stop-color="#ff6f00" stop-opacity="0"/></linearGradient><linearGradient id="P" x1="188.922" y1="238.619" x2="511.209" y2="48.556" xlink:href="#T"><stop stop-color="#fff" stop-opacity=".6"/><stop offset=".501" stop-color="#ffb77f" stop-opacity=".27"/><stop offset="1" stop-color="#ff6f00" stop-opacity="0"/></linearGradient><linearGradient id="Q" x1="194.578" y1="248.211" x2="516.866" y2="58.148" xlink:href="#T"><stop stop-color="#fff" stop-opacity=".6"/><stop offset=".501" stop-color="#ffb77f" stop-opacity=".27"/><stop offset="1" stop-color="#ff6f00" stop-opacity="0"/></linearGradient><linearGradient id="R" x1="200.235" y1="257.803" x2="522.522" y2="67.74" xlink:href="#T"><stop stop-color="#fff" stop-opacity=".6"/><stop offset=".501" stop-color="#ffb77f" stop-opacity=".27"/><stop offset="1" stop-color="#ff6f00" stop-opacity="0"/></linearGradient><linearGradient id="S" x1="205.892" y1="267.395" x2="528.179" y2="77.332" xlink:href="#T"><stop stop-color="#fff" stop-opacity=".6"/><stop offset=".501" stop-color="#ffb77f" stop-opacity=".27"/><stop offset="1" stop-color="#ff6f00" stop-opacity="0"/></linearGradient><linearGradient id="T" gradientUnits="userSpaceOnUse"/></defs></svg>