<svg width="80" height="80" viewBox="0 0 80 80" fill="none" xmlns="http://www.w3.org/2000/svg">
<path d="M56.627 52.1697C54.5637 52.1697 52.8851 50.4923 52.8851 48.4306C52.8851 46.3688 54.5637 44.6914 56.627 44.6914C58.6887 44.6914 60.3661 46.3688 60.3661 48.4306C60.3661 50.4923 58.6887 52.1697 56.627 52.1697ZM56.627 46.6445C55.6405 46.6445 54.8382 47.4457 54.8382 48.4306C54.8382 49.4154 55.6406 50.2166 56.627 50.2166C57.6118 50.2166 58.413 49.4154 58.413 48.4306C58.413 47.4457 57.6118 46.6445 56.627 46.6445Z" fill="#0F3599"/>
<path d="M32.6846 31.708V24.8202H49.0588C52.1287 24.8202 54.6262 27.3165 54.6262 30.3848C54.6262 33.4547 52.1287 35.9521 49.0588 35.9521H42.3295C41.7902 35.9521 41.3529 36.3895 41.3529 36.9287C41.3529 37.468 41.7902 37.9053 42.3295 37.9053H49.0588C53.2056 37.9053 56.5793 34.5315 56.5793 30.3848C56.5793 26.2396 53.2056 22.8671 49.0588 22.8671H32.6846V15.9766C32.6846 15.4373 32.2473 15 31.708 15H15.9766C15.4373 15 15 15.4373 15 15.9766V31.708C15 32.2473 15.4373 32.6846 15.9766 32.6846H31.708C32.2473 32.6846 32.6846 32.2473 32.6846 31.708ZM22.0105 16.9531H25.674V20.6523L24.3561 19.84C24.0421 19.6466 23.6458 19.6464 23.3316 19.8398L22.0106 20.6532V16.9531H22.0105ZM30.7314 30.7314H16.9531V16.9531H20.0574V22.4015C20.0574 22.7553 20.2488 23.0814 20.5577 23.254C20.8667 23.4266 21.2449 23.4187 21.546 23.2329L23.8433 21.8183L26.1381 23.2327C26.2949 23.3294 26.4727 23.3779 26.6505 23.3779C26.8144 23.3779 26.9784 23.3367 27.1266 23.254C27.4355 23.0814 27.6271 22.7553 27.6271 22.4014V16.9531H30.7313V30.7314H30.7314Z" fill="#0F3599"/>
<path d="M60.969 57.3559C62.9671 54.7305 64.8143 52.2137 64.7758 48.4249C64.7731 43.9323 61.1186 40.2786 56.627 40.2786C52.1338 40.2786 48.478 43.9328 48.4753 48.4254C48.4371 52.2138 50.2844 54.7312 52.2839 57.3559C50.3139 57.9064 48.962 58.8168 48.4638 59.9243H24.1149C22.4493 59.9243 21.0942 58.5706 21.0942 56.9065C21.0942 55.2409 22.4493 53.8858 24.1149 53.8858H37.3605C40.1031 53.8858 42.3344 51.6559 42.3344 48.9148C42.3344 46.1723 40.1031 43.941 37.3605 43.941H24.9813C23.3173 43.941 21.9635 42.5872 21.9635 40.9231C21.9635 39.2591 23.3173 37.9053 24.9813 37.9053H33.56C34.0992 37.9053 34.5365 37.468 34.5365 36.9287C34.5365 36.3895 34.0992 35.9521 33.56 35.9521H24.9813C22.2403 35.9521 20.0104 38.1821 20.0104 40.9231C20.0104 43.6642 22.2403 45.8941 24.9813 45.8941H37.3605C39.0262 45.8941 40.3812 47.2492 40.3812 48.9148C40.3812 50.5789 39.0262 51.9327 37.3605 51.9327H24.1149C21.3724 51.9327 19.1411 54.164 19.1411 56.9065C19.1411 59.6475 21.3724 61.8774 24.1149 61.8774H48.4625C48.8396 62.7225 49.7137 63.4594 51.0154 64.0086C52.5305 64.6478 54.5233 64.9998 56.627 64.9998C58.7294 64.9998 60.7215 64.6478 62.2361 64.0085C64.0184 63.2562 65 62.1525 65 60.9007C65 59.3567 63.4915 58.0611 60.969 57.3559ZM50.4283 48.4405C50.4284 48.4371 50.4284 48.4337 50.4284 48.4303C50.4284 45.0124 53.2091 42.2317 56.627 42.2317C60.0433 42.2317 62.8227 45.0124 62.8227 48.4303C62.8227 48.4337 62.8227 48.4371 62.8228 48.4405C62.8567 51.6543 61.1938 53.8376 59.2684 56.3654C59.0675 56.6291 57.1094 58.9635 57.1094 58.9635C56.9405 59.1585 56.7651 59.2722 56.6269 59.2764C56.436 59.2708 56.2415 59.0785 56.1432 58.965C56.1432 58.965 54.1886 56.6326 53.9888 56.3707C52.06 53.841 50.3943 51.6565 50.4283 48.4405ZM56.627 63.0467C52.4712 63.0467 50.2042 61.629 50.2042 60.9007C50.2042 60.4042 51.2969 59.5106 53.6299 59.0406L54.6648 60.2415C55.3665 61.0521 56.1155 61.2262 56.6205 61.2295H56.6268C56.6268 61.2295 56.6311 61.2295 56.6331 61.2295C57.1367 61.2262 57.8843 61.0521 58.5867 60.2406L59.6229 59.0405C61.9546 59.5106 63.0467 60.4043 63.0467 60.9007C63.0469 61.629 60.7809 63.0467 56.627 63.0467Z" fill="#0F3599"/>
<path d="M36.9681 36.9287C36.9681 37.468 37.4054 37.9053 37.9446 37.9053H37.9474C38.4866 37.9053 38.9226 37.468 38.9226 36.9287C38.9226 36.3895 38.4839 35.9521 37.9445 35.9521C37.4052 35.9521 36.9681 36.3894 36.9681 36.9287Z" fill="#0F3599"/>
</svg>
