<svg width="80" height="80" viewBox="0 0 80 80" fill="none" xmlns="http://www.w3.org/2000/svg">
<path d="M60.8823 27.4596H60.3754C60.0758 26.4073 59.6573 25.3978 59.1253 24.4433L59.4855 24.083C59.8977 23.671 60.1246 23.1215 60.1246 22.5357C60.1246 21.9498 59.8977 21.4004 59.4852 20.9879L57.0849 18.5904C56.6727 18.1757 56.1225 17.9474 55.5356 17.9474C54.9488 17.9474 54.3985 18.1757 53.9884 18.5884L53.6285 18.9482C52.6734 18.4146 51.6634 17.9952 50.6119 17.6957V17.189C50.612 15.982 49.6301 15 48.423 15H45.0293C43.8223 15 42.8403 15.982 42.8403 17.189V17.6957C41.789 17.9951 40.7784 18.4146 39.8213 18.9486L39.4631 18.5904C39.0508 18.1757 38.5006 17.9474 37.9138 17.9475C37.327 17.9475 36.7768 18.1759 36.3666 18.5885L33.9668 20.9884C33.5546 21.4004 33.3277 21.9499 33.3277 22.5358C33.3277 23.1216 33.5546 23.671 33.9667 24.083L34.3268 24.4432C33.7926 25.4006 33.3738 26.4104 33.0759 27.4596H32.5672C31.3602 27.4596 30.3782 28.4416 30.3782 29.6486V33.0452C30.3782 34.2522 31.3602 35.2342 32.5672 35.2342H33.0759C33.3738 36.2833 33.7926 37.293 34.3268 38.2505L33.9667 38.6108C33.5545 39.0228 33.3276 39.5723 33.3276 40.1581C33.3276 40.7438 33.5545 41.2933 33.9666 41.7053L36.3646 44.1033C36.7768 44.5181 37.3269 44.7464 37.9137 44.7464H37.9138C38.5006 44.7464 39.0509 44.5181 39.4611 44.1054L39.8212 43.7451C40.7793 44.2797 41.7899 44.6985 42.8402 44.9964V45.5048C42.8402 46.7119 43.8222 47.6939 45.0292 47.6939H48.4229C49.6299 47.6939 50.6119 46.7119 50.6119 45.5048V44.9964C51.6626 44.6984 52.6723 44.2798 53.6285 43.7455L53.9863 44.1033C54.3985 44.5181 54.9487 44.7464 55.5355 44.7464C56.1224 44.7464 56.6727 44.518 57.0825 44.1058L59.4855 41.7053C59.8976 41.2932 60.1245 40.7437 60.1245 40.158C60.1245 39.5722 59.8976 39.0228 59.4855 38.6108L59.1252 38.2504C59.6572 37.296 60.0757 36.2864 60.3754 35.2342H60.8822C62.0892 35.2342 63.0712 34.2522 63.0712 33.0452V29.6486C63.0713 28.4416 62.0894 27.4596 60.8823 27.4596ZM48.6589 45.5048C48.6589 45.6327 48.5509 45.7407 48.423 45.7407H45.0293C44.9014 45.7407 44.7934 45.6327 44.7934 45.5048V44.2369V38.0805C44.7934 37.6721 44.5393 37.3069 44.1565 37.1649C41.5323 36.1917 39.7693 33.6662 39.7693 30.8805C39.7693 28.6728 40.8686 26.6033 42.7094 25.3451C42.792 25.2886 42.865 25.2425 42.9289 25.2047C42.9254 25.3317 42.9164 25.4524 42.9116 25.5154C42.9043 25.6145 42.8984 25.6927 42.8984 25.7704V30.3793C42.8984 32.4948 44.5514 34.2616 46.6614 34.4015C46.7045 34.4043 46.7476 34.4043 46.7907 34.4015C48.8993 34.2617 50.551 32.4949 50.551 30.3793V25.7704C50.551 25.6931 50.5452 25.6154 50.538 25.5168C50.5333 25.4536 50.5243 25.3322 50.5209 25.2046C50.5846 25.2423 50.6572 25.2883 50.7395 25.3447C52.5808 26.6032 53.6801 28.6727 53.6801 30.8804C53.6801 33.6658 51.918 36.1914 49.2954 37.1649C48.9127 37.307 48.6587 37.6721 48.6587 38.0804V44.2368V45.5048H48.6589ZM61.1182 33.0452C61.1182 33.1709 61.008 33.2811 60.8823 33.2811H59.6173C59.161 33.2811 58.7655 33.597 58.6648 34.042C58.3556 35.4085 57.8199 36.7007 57.0728 37.8826C56.8289 38.2685 56.8849 38.772 57.2078 39.0948L58.1047 39.9918C58.1629 40.05 58.1716 40.1209 58.1716 40.158C58.1716 40.195 58.1629 40.266 58.105 40.3238L55.6999 42.7263C55.6449 42.7816 55.5802 42.7932 55.5356 42.7932C55.4912 42.7932 55.4265 42.7816 55.3695 42.7242L54.4726 41.8272C54.1492 41.504 53.6452 41.4483 53.2593 41.6928C52.4257 42.221 51.5385 42.6402 50.612 42.9499V38.73C53.6416 37.3201 55.6334 34.2476 55.6334 30.8803C55.6334 28.0271 54.2159 25.3549 51.842 23.7322C51.4783 23.4837 50.3724 22.7276 49.4051 23.2843C48.4553 23.8311 48.5499 25.113 48.5903 25.6605C48.5938 25.708 48.5972 25.748 48.598 25.7704V30.3793C48.598 31.4482 47.781 32.3444 46.7262 32.4474C45.6698 32.3443 44.8516 31.4481 44.8516 30.3793L44.8515 25.7774C44.8524 25.748 44.8559 25.708 44.8594 25.6603C44.9001 25.1131 44.9955 23.8319 44.0465 23.2848C43.0797 22.7271 41.9721 23.4835 41.6077 23.7322C39.2336 25.355 37.8162 28.0272 37.8162 30.8804C37.8162 34.2482 39.809 37.3209 42.8403 38.7304V42.95C41.9137 42.6403 41.0253 42.2209 40.1893 41.6924C40.0286 41.5909 39.8477 41.5414 39.6677 41.5414C39.4155 41.5414 39.1653 41.6389 38.9769 41.8274L38.0781 42.7263C38.0231 42.7817 37.9584 42.7933 37.9139 42.7933C37.8693 42.7933 37.8048 42.7817 37.7478 42.7243L35.3478 40.3243C35.2895 40.2661 35.2808 40.1951 35.2808 40.1581C35.2808 40.121 35.2895 40.0501 35.3478 39.9918L36.2447 39.0948C36.5675 38.772 36.6236 38.2685 36.3796 37.8826C35.6287 36.6944 35.0931 35.4028 34.788 34.0437C34.688 33.5979 34.2921 33.281 33.8352 33.281H32.5674C32.4417 33.281 32.3315 33.1708 32.3315 33.0451V29.6485C32.3315 29.5206 32.4395 29.4126 32.5674 29.4126H33.8352C34.2921 29.4126 34.6879 29.0957 34.788 28.6499C35.0931 27.2907 35.6286 25.9991 36.3796 24.811C36.6236 24.4251 36.5675 23.9216 36.2447 23.5987L35.3477 22.7018C35.2895 22.6436 35.2808 22.5727 35.2808 22.5356C35.2808 22.4985 35.2895 22.4276 35.3478 22.3693L37.7498 19.9672C37.8048 19.9119 37.8694 19.9003 37.914 19.9003C37.9585 19.9003 38.0231 19.9119 38.0802 19.9692L38.977 20.8662C39.3001 21.1891 39.8036 21.2451 40.1894 21.0011C41.376 20.251 42.669 19.7143 44.0322 19.4064C44.4775 19.3059 44.7936 18.9103 44.7936 18.4539V17.189C44.7936 17.0611 44.9016 16.9531 45.0295 16.9531H48.4232C48.5511 16.9531 48.6591 17.0611 48.6591 17.189V18.4541C48.6591 18.9106 48.9752 19.3061 49.4204 19.4066C50.7849 19.7148 52.0764 20.2511 53.2595 21.0008C53.6455 21.2454 54.1494 21.1897 54.4728 20.8665L55.3717 19.9675C55.4266 19.9122 55.4914 19.9006 55.5358 19.9006C55.5803 19.9006 55.645 19.9122 55.7024 19.9699L58.1049 22.3696C58.1631 22.4278 58.1718 22.4987 58.1718 22.5358C58.1718 22.5729 58.1631 22.6438 58.1048 22.7021L57.2079 23.599C56.8851 23.9219 56.829 24.4254 57.073 24.8113C57.82 25.9932 58.3558 27.2853 58.665 28.6518C58.7657 29.0968 59.1612 29.4127 59.6175 29.4127H60.8825C61.0104 29.4127 61.1184 29.5208 61.1184 29.6487V33.0452H61.1182Z" fill="#0F3599"/>
<path d="M52.4162 57.999C52.0348 58.3803 52.0348 58.9987 52.4162 59.3801C52.6069 59.5708 52.8568 59.6662 53.1067 59.6662C53.3566 59.6662 53.6065 59.5708 53.7972 59.3801L53.8 59.3774C54.1813 58.996 54.1799 58.3791 53.7985 57.9977C53.417 57.6164 52.7975 57.6178 52.4162 57.999Z" fill="#0F3599"/>
<path d="M56.9401 48.5392L49.1872 52.5207C48.53 51.84 47.6091 51.4154 46.5905 51.4154H41.2785C40.9811 51.4154 40.9084 51.3918 40.9035 51.3901C40.8605 51.3675 40.7243 51.2396 40.6151 51.1368L40.5666 51.0913C36.2691 47.0458 32.6388 47.3022 28.5105 48.9314C27.8425 49.1951 27.8296 49.1957 27.1588 49.2243L25.9577 49.2252C25.6155 48.1929 24.6417 47.4458 23.4961 47.4458H19.5904C18.162 47.4458 17 48.6092 17 50.039V60.2896C17 61.7179 18.162 62.88 19.5904 62.88H23.4961C24.6416 62.88 25.6153 62.1338 25.9576 61.1028H28.1548C28.3489 61.1028 28.3489 61.1028 28.5745 61.1664C28.6566 61.1895 28.7564 61.2176 28.8853 61.2523L38.9919 63.9562C39.4374 64.0765 39.8459 64.1949 40.2412 64.3094C41.536 64.6846 42.6245 65 43.7589 65C45.0411 65 46.3818 64.5971 48.1452 63.4219C48.1537 63.4162 48.1622 63.4104 48.1706 63.4044L50.1 62.0286C50.5392 61.7154 50.6413 61.1056 50.3281 60.6665C50.0149 60.2272 49.405 60.1252 48.9661 60.4384L47.0495 61.805C44.4906 63.507 43.404 63.1924 40.7847 62.4334C40.3812 62.3165 39.964 62.1957 39.4991 62.0701L29.3917 59.3661C29.2733 59.3343 29.1805 59.3081 29.1043 59.2866C28.7356 59.1827 28.5977 59.1499 28.1549 59.1499H26.0893V51.179H27.1447C27.1587 51.179 27.1726 51.1787 27.1867 51.1781L27.2423 51.1758C28.061 51.1408 28.29 51.1185 29.2276 50.7483C32.8534 49.3174 35.6522 49.1474 39.2293 52.5148L39.2776 52.5602C39.8889 53.1347 40.241 53.3687 41.2786 53.3687H46.5906C47.214 53.3687 47.7577 53.7148 48.0411 54.2246C48.0441 54.2303 48.0476 54.2357 48.0507 54.2413C48.1773 54.4754 48.2494 54.7432 48.2494 55.0276C48.2494 55.9407 47.5053 56.6836 46.5907 56.6836H37.9818C37.4426 56.6836 37.0053 57.1208 37.0053 57.6601C37.0053 58.1995 37.4426 58.6367 37.9818 58.6367H46.5907C48.5823 58.6367 50.2024 57.0176 50.2024 55.0276C50.2024 54.7571 50.1716 54.4938 50.1149 54.2402L57.8323 50.2769C58.5628 49.9019 59.5616 49.9421 60.0575 50.7468C60.4962 51.4561 60.2548 52.3988 59.4966 52.9394L56.1112 55.3505C55.6718 55.6634 55.5693 56.2731 55.8822 56.7125C56.0727 56.98 56.3733 57.1226 56.6785 57.1226C56.8745 57.1226 57.0723 57.0637 57.2441 56.9415L60.6298 54.5301C62.2378 53.3837 62.7058 51.3156 61.7193 49.7208C60.7492 48.1465 58.6947 47.6385 56.9401 48.5392ZM24.1362 60.2896C24.1362 60.6351 23.8431 60.9269 23.4961 60.9269H19.5904C19.2449 60.9269 18.9531 60.635 18.9531 60.2896V50.0391C18.9531 49.6862 19.239 49.399 19.5904 49.399H23.4961C23.8431 49.399 24.1362 49.692 24.1362 50.0391V60.2896Z" fill="#0F3599"/>
</svg>
