<svg width="80" height="80" viewBox="0 0 80 80" fill="none" xmlns="http://www.w3.org/2000/svg">
<path d="M56.9586 32.1038C56.9586 22.6576 49.301 15 39.8548 15C30.4087 15 22.751 22.6576 22.751 32.1038C20.309 32.4078 18 34.0042 18 37.71V46.642C18 50.8229 20.9266 52.3432 23.7013 52.3432H26.4569C26.9816 52.3432 27.4071 51.9178 27.4071 51.393V32.997C27.4071 32.4722 26.9816 32.0468 26.4569 32.0468H24.6515C24.6515 23.6502 31.4583 16.8434 39.8548 16.8434C48.2513 16.8434 55.0582 23.6502 55.0582 32.0468H53.2528C52.728 32.0468 52.3025 32.4722 52.3025 32.997V51.3645C52.3025 51.8893 52.728 52.3147 53.2528 52.3147H55.0582C54.7921 58.8426 51.6564 60.3725 45.3945 60.648V60.0114C45.3945 58.9618 44.5437 58.111 43.4941 58.111H37.5173C36.4677 58.111 35.6169 58.9618 35.6169 60.0114V63.0996C35.6169 64.1492 36.4677 65 37.5173 65H43.5131C44.5627 65 45.4135 64.1492 45.4135 63.0996V62.5485C51.4379 62.2729 56.645 61.0281 56.9586 52.2577C59.4006 51.9536 61.7096 50.3573 61.7096 46.6515V37.7195C61.7096 33.9947 59.4101 32.4078 56.9586 32.1038ZM25.5067 33.8807V50.4143H23.6537C22.2474 50.4143 19.8529 49.9202 19.8529 46.6135V37.6815C19.8529 34.4033 22.2189 33.8807 23.6537 33.8807H25.5067ZM43.5131 61.6648V63.1091H37.5173V60.0209H43.5131V61.6648ZM59.8092 46.642C59.8092 49.9202 57.4432 50.4428 56.0084 50.4428H54.203V33.9472H56.0559C57.4622 33.9472 59.8567 34.4413 59.8567 37.748L59.8092 46.642Z" fill="#0F3599"/>
</svg>
