<svg width="80" height="80" viewBox="0 0 80 80" fill="none" xmlns="http://www.w3.org/2000/svg">
<path d="M39.9995 24.9277C40.5388 24.9277 40.9761 24.4904 40.9761 23.9512V18.9766C40.9761 18.4373 40.5389 18 39.9995 18C39.4602 18 39.023 18.4372 39.023 18.9766V23.9512C39.0231 24.4904 39.4603 24.9277 39.9995 24.9277Z" fill="#0F3599"/>
<path d="M32.6575 26.5321C32.8431 26.8267 33.1602 26.988 33.4845 26.988C33.6624 26.988 33.8426 26.9394 34.0042 26.8375C34.4605 26.55 34.5972 25.947 34.3097 25.4907L31.7078 21.3622C31.4202 20.906 30.8171 20.7692 30.361 21.0568C29.9047 21.3443 29.768 21.9473 30.0555 22.4037L32.6575 26.5321Z" fill="#0F3599"/>
<path d="M45.9981 26.8377C46.1597 26.9394 46.3397 26.9879 46.5174 26.9879C46.8418 26.9879 47.1591 26.8264 47.3447 26.5316L49.944 22.4032C50.2313 21.9467 50.0943 21.3439 49.6378 21.0564C49.1812 20.7692 48.5785 20.9063 48.2911 21.3626L45.6919 25.491C45.4046 25.9475 45.5417 26.5503 45.9981 26.8377Z" fill="#0F3599"/>
<path d="M64.6852 40.9908L62.9884 37.9933C62.7226 37.5237 62.1267 37.3587 61.6576 37.6245C61.1882 37.8902 61.0231 38.486 61.2889 38.9553L62.9849 41.9516C63.0698 42.1022 63.0478 42.2474 63.0271 42.3205C63.0071 42.3909 62.9523 42.5209 62.8087 42.6002L60.1937 44.0487C59.9613 44.1771 59.6581 44.096 59.5315 43.8726L58.8671 42.6974C58.8644 42.6921 58.8612 42.6872 58.8584 42.682L51.9902 30.5342C51.9054 30.3847 51.9269 30.2413 51.9472 30.1692C51.9668 30.0993 52.0213 29.9703 52.1649 29.8909L54.783 28.4421C55.0183 28.3118 55.3141 28.3909 55.4427 28.6189L56.9734 31.3233C57.2391 31.7927 57.8351 31.9576 58.3042 31.6921C58.7736 31.4265 58.9387 30.8306 58.6731 30.3613L57.1431 27.658C56.4905 26.5012 55.0079 26.0863 53.8378 26.733L51.2197 28.1819C50.6532 28.4949 50.244 29.0124 50.0674 29.6393C49.9008 30.2303 49.9604 30.8473 50.2331 31.3888L48.7909 31.8068C48.1766 31.9845 47.8037 32.0809 47.5968 32.0809C47.5959 32.0809 47.5951 32.0809 47.5944 32.0809C47.4519 32.0804 47.2965 32.026 46.853 31.858C46.6519 31.7819 46.4014 31.6869 46.0935 31.5795L43.5383 30.6863C42.1251 30.1927 41.4877 30.2193 40.5643 30.3035L36.2073 30.6935C34.221 30.8695 32.9547 31.3175 32.2557 32.0946L29.7727 31.3751C30.0399 30.836 30.0972 30.2249 29.9322 29.6393C29.7556 29.0128 29.3466 28.4954 28.7807 28.1823L26.1641 26.7328C24.993 26.0855 23.5095 26.5006 22.8569 27.6572L15.3174 40.9895C14.9947 41.5577 14.9148 42.2187 15.0927 42.8506C15.2695 43.4781 15.6787 43.9961 16.2441 44.3088L18.8607 45.7581C19.2348 45.9649 19.6413 46.0632 20.0423 46.0632C20.8944 46.0632 21.7227 45.6199 22.1679 44.8339L22.4444 44.3448C23.1989 44.677 23.8324 45.1595 24.2641 45.7308C23.8424 46.2235 23.5768 46.8316 23.5023 47.4931C23.4038 48.3678 23.6509 49.226 24.198 49.9101C24.7404 50.5883 25.516 51.0162 26.3832 51.117C26.2914 51.9843 26.5395 52.8341 27.0824 53.5105C27.6435 54.2121 28.4366 54.6214 29.2661 54.718C29.1747 55.584 29.4219 56.433 29.9631 57.1099C30.5052 57.7895 31.281 58.2184 32.1492 58.3191C32.0573 59.1871 32.3053 60.0374 32.8482 60.714C33.4952 61.5229 34.4505 61.9441 35.4149 61.944C36.1348 61.944 36.8598 61.7093 37.4651 61.2259L39.5098 59.5897C39.6722 59.4602 39.8197 59.3169 39.9525 59.1626L41.1204 60.0956C41.7244 60.5776 42.4478 60.8118 43.1667 60.8117C44.1316 60.8116 45.0884 60.3899 45.7363 59.5802C46.0779 59.1532 46.2941 58.6659 46.3917 58.1629C46.7332 58.281 47.0938 58.3421 47.4613 58.342C47.5846 58.342 47.7086 58.3352 47.833 58.3214C48.708 58.2242 49.4904 57.7939 50.0341 57.1121C50.5779 56.4346 50.826 55.5849 50.7343 54.7177C51.5633 54.6209 52.3568 54.2117 52.9195 53.5104C53.4801 52.8096 53.7051 51.9467 53.617 51.1168C54.4838 51.0158 55.259 50.588 55.8001 49.9113C56.3476 49.2291 56.5957 48.3722 56.4987 47.4981C56.4251 46.8347 56.1593 46.2245 55.7368 45.7304C56.1673 45.1593 56.7995 44.6762 57.5545 44.3442L57.8316 44.8343C58.2765 45.62 59.1044 46.0631 59.9566 46.0631C60.3579 46.063 60.7648 45.9648 61.1393 45.7577L63.7544 44.3091C64.3196 43.9966 64.7286 43.4794 64.9061 42.8529C65.085 42.2216 65.0067 41.5607 64.6852 40.9908ZM20.4681 43.8721C20.3412 44.0963 20.0377 44.1772 19.8064 44.0491L17.1899 42.5999C17.047 42.5208 16.9925 42.3913 16.9726 42.3211C16.9522 42.2483 16.9304 42.1039 17.0165 41.9525L24.5572 28.6176C24.6435 28.4646 24.8062 28.3788 24.9751 28.3788C25.0574 28.3788 25.141 28.399 25.2181 28.4417L27.8339 29.8907C27.8342 29.8909 27.8345 29.8911 27.8348 29.8912C27.978 29.9704 28.0324 30.0994 28.0521 30.1693C28.0724 30.2414 28.0939 30.3848 28.008 30.536L20.4681 43.8721ZM27.5945 48.8975C27.3191 49.1181 26.9713 49.2178 26.616 49.1782C26.2604 49.1388 25.9435 48.9655 25.7234 48.6903C25.5028 48.4145 25.4034 48.0668 25.4433 47.7115C25.483 47.3577 25.6564 47.0424 25.9331 46.8222L29.5892 43.8997C30.163 43.4416 31.003 43.5358 31.4616 44.1086C31.6821 44.3843 31.7816 44.7314 31.7417 45.0856C31.7021 45.4386 31.5286 45.7536 31.2534 45.9726C31.2474 45.9774 31.2422 45.9827 31.2364 45.9877L27.5953 48.8968C27.5951 48.897 27.5948 48.8973 27.5945 48.8975ZM28.6066 52.2895C28.3862 52.0147 28.2866 51.6686 28.3259 51.3147C28.3653 50.9605 28.5388 50.6437 28.8144 50.4227L28.8147 50.4225C28.8149 50.4224 28.8151 50.4222 28.8153 50.4221C28.8154 50.4221 28.8154 50.422 28.8155 50.4219L34.0817 46.2145C34.6554 45.7563 35.4955 45.8498 35.954 46.4233C36.1742 46.6986 36.2738 47.0453 36.2344 47.3994C36.1949 47.7539 36.0209 48.0707 35.7447 48.2914L30.4798 52.4973C29.9054 52.9557 29.0656 52.8632 28.6066 52.2895ZM32.3818 56.3803C32.0263 56.3408 31.7097 56.1674 31.4893 55.891C31.2691 55.6157 31.1696 55.269 31.2089 54.9149C31.2484 54.5607 31.4221 54.2442 31.698 54.0235C31.6982 54.0233 31.6985 54.0231 31.6987 54.0229L35.343 51.1116C35.3473 51.1083 35.352 51.1055 35.3563 51.1021C35.9285 50.6439 36.7684 50.7372 37.2274 51.3093C37.448 51.5851 37.5475 51.9327 37.5075 52.288C37.4677 52.6418 37.2944 52.9571 37.0177 53.1773L33.3617 56.0997C33.0855 56.3203 32.7373 56.4195 32.3818 56.3803ZM38.78 57.173C38.7405 57.5272 38.5669 57.8434 38.2906 58.0641L36.2457 59.7005C35.6712 60.159 34.8314 60.0667 34.3726 59.4929C34.1522 59.2184 34.0525 58.8719 34.0918 58.5173C34.1312 58.1627 34.3045 57.8464 34.5796 57.6267C34.5799 57.6265 34.5803 57.6262 34.5806 57.626L36.6249 55.9918C36.626 55.9909 36.6272 55.9902 36.6283 55.9895C37.2022 55.5314 38.0421 55.6253 38.5007 56.1983C38.7203 56.4731 38.8197 56.8191 38.78 57.173ZM54.2759 48.6902C54.0558 48.9654 53.7388 49.1388 53.3833 49.1782C53.0281 49.2182 52.6802 49.1182 52.4048 48.8975C52.4047 48.8974 52.4045 48.8973 52.4043 48.8972C52.4042 48.8971 52.404 48.897 52.4039 48.8969L49.7908 46.8091C49.3694 46.4724 48.7549 46.5411 48.4184 46.9624C48.0818 47.3837 48.1504 47.9982 48.5717 48.3349L51.1839 50.422C51.757 50.8809 51.8514 51.7191 51.3953 52.2894C50.9352 52.8628 50.0952 52.9561 49.5218 52.4968L46.6873 50.2349C46.2658 49.8985 45.6514 49.9676 45.315 50.3891C44.9786 50.8106 45.0476 51.425 45.4692 51.7614L48.3023 54.0223C48.5783 54.2434 48.7521 54.5604 48.7915 54.9149C48.8309 55.2688 48.7313 55.6151 48.509 55.892C48.2894 56.1674 47.9728 56.3407 47.6174 56.3803C47.2616 56.4194 46.9135 56.3201 46.6383 56.1005L45.2279 54.9726C45.2255 54.9706 45.2234 54.9686 45.2209 54.9666L44.0293 54.014L43.8066 53.8358C43.3852 53.4989 42.7707 53.5674 42.434 53.9885C42.3919 54.0412 42.3561 54.0969 42.3266 54.1547C42.1852 54.4311 42.1875 54.7552 42.3202 55.027C42.3817 55.1528 42.4701 55.2678 42.5867 55.361L44.0048 56.4951C44.574 56.9548 44.6671 57.7902 44.2113 58.3601C43.7527 58.9334 42.9126 59.027 42.3391 58.5695L40.7302 57.2842C40.7972 56.4483 40.5495 55.6332 40.0257 54.9782C39.7001 54.5713 39.2963 54.2631 38.8529 54.0563C39.1779 53.6055 39.3842 53.0758 39.4483 52.5063C39.5467 51.6316 39.2996 50.7734 38.7516 50.0882C38.4259 49.6823 38.0226 49.3748 37.58 49.1686C37.9056 48.7163 38.1119 48.1856 38.1754 47.6152C38.2726 46.7426 38.0253 45.886 37.4792 45.2031C36.5396 44.0283 34.9505 43.6712 33.628 44.2325C33.5221 43.7464 33.3058 43.2878 32.9865 42.8885C31.8558 41.4756 29.7853 41.2444 28.3702 42.3735L25.7553 44.4637C25.164 43.7091 24.3602 43.0833 23.4098 42.637L28.7886 33.1233L31.6525 33.953C31.6656 34.1063 31.6904 34.2674 31.7319 34.4381C32.4251 37.2885 35.0495 38.6166 38.5811 37.905C41.5567 37.3063 42.7817 38.1982 45.2214 39.9748C45.4745 40.1591 45.7375 40.3506 46.0128 40.5478C47.7674 41.8066 49.6424 43.2861 50.8995 44.289L54.0694 46.8224C54.3448 47.0421 54.5182 47.3585 54.5575 47.7134C54.5969 48.068 54.4973 48.4145 54.2759 48.6902ZM54.2455 44.4631L52.1183 42.763C50.8438 41.7463 48.9423 40.246 47.1508 38.9607C46.8793 38.7662 46.6204 38.5777 46.3712 38.3962C43.8413 36.5539 42.0129 35.2229 38.1957 35.9905C37.0274 36.226 34.2438 36.5013 33.6298 33.9771C33.5433 33.6207 33.6312 33.4983 33.6686 33.446C33.7992 33.264 34.3245 32.8209 36.3801 32.6389L40.7417 32.2486C41.4525 32.1837 41.809 32.1511 42.8938 32.53L45.4492 33.4234C45.7333 33.5226 45.9605 33.6085 46.161 33.6845C47.3914 34.1506 47.7175 34.1505 49.334 33.6826L51.218 33.1367L56.5896 42.6376C55.6389 43.0836 54.8358 43.7089 54.2455 44.4631Z" fill="#0F3599"/>
<path d="M59.9775 35.6362C60.5168 35.6362 60.9541 35.1976 60.9541 34.6582C60.9541 34.1188 60.5168 33.6816 59.9775 33.6816C59.4383 33.6816 59.001 34.1189 59.001 34.6582V34.6609C59.001 35.2003 59.4383 35.6362 59.9775 35.6362Z" fill="#0F3599"/>
</svg>
