<svg width="18" height="18" viewBox="0 0 18 18" fill="none" xmlns="http://www.w3.org/2000/svg">
    <path d="M8.99988 5.7666C9.42327 5.7666 9.7665 5.42336 9.7665 4.99997C9.7665 4.57658 9.42327 4.23334 8.99988 4.23334C8.57649 4.23334 8.23325 4.57658 8.23325 4.99997C8.23325 5.42336 8.57649 5.7666 8.99988 5.7666Z" fill="#0F3599" stroke="#0F3599" stroke-width="0.2"/>
    <path d="M8.39988 13.1666C8.39988 13.4979 8.66865 13.7666 8.99988 13.7666C9.33111 13.7666 9.59988 13.4979 9.59988 13.1666V7.5C9.59988 7.16877 9.33111 6.9 8.99988 6.9H7.83325C7.50202 6.9 7.23325 7.16877 7.23325 7.5C7.23325 7.83123 7.50202 8.1 7.83325 8.1H8.39988V13.1666Z" fill="#0F3599" stroke="#0F3599" stroke-width="0.2"/>
    <path d="M0.9 9C0.9 13.4666 4.53339 17.1 9 17.1C13.4666 17.1 17.1 13.4666 17.1 9C17.1 4.53339 13.4666 0.9 9 0.9C4.53339 0.9 0.9 4.53339 0.9 9ZM2.1 9C2.1 5.19524 5.19524 2.1 9 2.1C12.8048 2.1 15.9 5.19524 15.9 9C15.9 12.8048 12.8048 15.9 9 15.9C5.19524 15.9 2.1 12.8048 2.1 9Z" fill="#0F3599" stroke="#0F3599" stroke-width="0.2"/>
    <path d="M7.5 13.7667H10.5C10.8312 13.7667 11.1 13.4979 11.1 13.1667C11.1 12.8354 10.8312 12.5667 10.5 12.5667H7.5C7.16877 12.5667 6.9 12.8354 6.9 13.1667C6.9 13.4979 7.16877 13.7667 7.5 13.7667Z" fill="#0F3599" stroke="#0F3599" stroke-width="0.2"/>
</svg>
