<svg xmlns="http://www.w3.org/2000/svg" viewBox="0 0 540.21 67"><style><![CDATA[.C{stroke:#fff}.D{stroke-miterlimit:22.93}.E{stroke-width:.22}]]></style><g fill="#fff" fill-rule="evenodd"><path d="M61.31 5.73l-6.86-4-7 4.06L37.38 0l-2.3 4 7.95 4.59v13l11.42 6.61 11.43-6.61V8.4l7.65-4.41-2.3-4-9.92 5.73zm-23.71 19h0v.06l16.81 9.6V48.9l-16.63-9.58.08 8.45-12.72 12.76H0l37.55-35.76zm-4.34 10.7L11.6 55.9h11.63l10-10.06V35.46zm21.19-1.07l16.86-9.46 4.21 4 .38.34-.75-.46-8.87 6.48 3.74 4.36-15.57 9.28zm47.63 26.21V54.1l6.82 6.47h-6.82z"/><path d="M72.46 67c-7.516-.006-13.609-6.094-13.62-13.61v.53a9 9 0 0 0 .52 2.81l.13.34c0 .12.09.22.14.34s.21.43.32.65a9.64 9.64 0 0 0 .77 1.22 11.41 11.41 0 0 0 2 2.12 13.53 13.53 0 0 0 2.42 1.6 15.44 15.44 0 0 0 5.55 1.66h2.92a11.75 11.75 0 0 0 2.87-.67l.34-.14.34-.15c.22-.09.44-.21.66-.32a11.33 11.33 0 0 0 1.24-.79c.21-.14.4-.29.59-.44l.28-.24.27-.25.27-.26.25-.25.5-.51q2-2 4-4.09l7.91-8.28v7l-1.66-1.66-5.7 5.7.09.08a8.43 8.43 0 0 0 6 2.49 8.5 8.5 0 0 0 8.49-8.49 8.49 8.49 0 0 0-8.47-8.49 8.43 8.43 0 0 0-6 2.48l-9.1 9.09-1.81-1.81 1.47-1.4 1.47-1.41 5.84-5.66a15.54 15.54 0 0 1 1.5-1.29 11.24 11.24 0 0 1 1.68-1 11.19 11.19 0 0 1 1.84-.73 10.91 10.91 0 0 1 1.94-.38 10.12 10.12 0 0 1 1.1-.05 10.76 10.76 0 0 1 2.82.37 10.81 10.81 0 0 1 3.54 1.69 10.92 10.92 0 0 1 2.7 2.85 10.59 10.59 0 0 1 1.51 3.62 11 11 0 0 1 .1 3.92 10.4 10.4 0 0 1-1.3 3.71 11 11 0 0 1-6.02 4.91 11.22 11.22 0 0 1-3.45.55h-.49a10.72 10.72 0 0 1-3.89-.9 11.57 11.57 0 0 1-3.35-2.24h0l-1.89 1.89a13.51 13.51 0 0 1-9.63 4zm-1.63-5.28a8.5 8.5 0 0 1-6.86-8.33 8.49 8.49 0 0 1 8.49-8.49 8.43 8.43 0 0 1 6 2.48l.09.09 1.81-1.82a11.32 11.32 0 0 0-4.41-2.58 10.37 10.37 0 0 0-2.53-.47 7.45 7.45 0 0 1-.95.07 7.34 7.34 0 0 1-.81 0c-.25 0-.5 0-.74.09l-.63.11-.61.16c-.2.06-.41.11-.61.19l-.29.1-.3.12a12 12 0 0 0-1.14.55 11.9 11.9 0 0 0-1.06.68 10.73 10.73 0 0 0-3.29 3.76 10.92 10.92 0 0 0-.91 2.34c-.25.94-2.28.71-2.22 1.68 0 .21.46 1.28.49 1.48a14.83 14.83 0 0 0 0 1.77 20.94 20.94 0 0 0 .72 2 18.58 18.58 0 0 0 .66 1.81c1.06 1.3 4.12.68 5.69 1.35a13.65 13.65 0 0 0 3.39.94zM72.45 42a5.94 5.94 0 0 1-2.28-.45 6.24 6.24 0 0 1-2-1.29 6 6 0 0 1-1.32-1.94 6.44 6.44 0 0 1-.49-2.3 6.2 6.2 0 0 1 1.71-4.36 6.12 6.12 0 0 1 2-1.39 6.44 6.44 0 0 1 2.38-.57h0a6.44 6.44 0 0 1 2.38.57 6.11 6.11 0 0 1 2 1.4 6.15 6.15 0 0 1 1.7 4.35 6 6 0 0 1-1.81 4.24 6.08 6.08 0 0 1-2 1.29 6 6 0 0 1-2.29.45h0zm0-9.74a3.77 3.77 0 0 0-3.76 3.76 3.76 3.76 0 0 0 3.76 3.75 3.75 3.75 0 0 0 3.75-3.75 3.76 3.76 0 0 0-3.74-3.76z"/><path d="M72.46 67a13.64 13.64 0 0 1-13.3-10.7h.08c0 .15.09.29.14.43l.13.34c0 .12.09.22.14.34s.21.43.32.65a9.64 9.64 0 0 0 .77 1.22 11.41 11.41 0 0 0 2 2.12 13.53 13.53 0 0 0 2.42 1.6 15.44 15.44 0 0 0 5.55 1.66h2.92a11.75 11.75 0 0 0 2.87-.67l.34-.14.34-.15c.22-.09.44-.21.66-.32a11.33 11.33 0 0 0 1.24-.79c.21-.14.4-.29.59-.44l.28-.24.27-.25.27-.26.25-.25.5-.51q2-2 4-4.09l7.91-8.28v7l-1.66-1.66-9.4 9.4A13.51 13.51 0 0 1 72.46 67z"/><path d="M91.88 67a13.49 13.49 0 0 1-9.63-4l-.08-.08 1.81-1.81a11.07 11.07 0 0 0 7.23 3.46h.82a11.29 11.29 0 0 0 3.26-.48 11.24 11.24 0 0 0 3.66-1.91 11.33 11.33 0 0 0 4.16-7 11.58 11.58 0 0 0-.09-4.15 11.35 11.35 0 0 0-1.59-3.86 11.41 11.41 0 0 0-6.65-4.78 11.89 11.89 0 0 0-2.85-.35 11.15 11.15 0 0 0-1.29.07 11.06 11.06 0 0 0-4 1.22 12.4 12.4 0 0 0-1.74 1.14l-.4.33-.38.35-.72.73-2.84 2.91-2.78 2.93-1.41 1.47-1.4 1.47-1.8-1.76 5.38-5.38 1.81-1.82a10.94 10.94 0 0 0-4.31-2.89 11 11 0 0 0-1.52-.43 3.8 3.8 0 0 0 .47-.18 6.5 6.5 0 0 0 2.15-1.44 6.56 6.56 0 0 0 1.41-2.16 6.5 6.5 0 0 0 .48-2.53 6.68 6.68 0 0 0-.54-2.5 6.67 6.67 0 0 0-1.46-2.09 6.32 6.32 0 0 0-2.13-1.33l-.6-.2-.61-.13c-.21 0-.41-.05-.62-.06h-1.24c-.21 0-.42 0-.62.06l-.62.13-.59.2a6.22 6.22 0 0 0-2.13 1.33 6.51 6.51 0 0 0-1.46 2.09 6.68 6.68 0 0 0-.54 2.5 6.68 6.68 0 0 0 .47 2.53 6.75 6.75 0 0 0 1.43 2.11 6.4 6.4 0 0 0 2.15 1.44 2.52 2.52 0 0 0 .33.13 11.33 11.33 0 0 0-2 .57 11.11 11.11 0 0 0-1.22.55l-1.14.7a11.22 11.22 0 0 0-2 1.78 11.12 11.12 0 0 0-1.52 2.19 11.76 11.76 0 0 0-1 2.49 10 10 0 0 0-.21 1.09 4.4 4.4 0 0 0-2.38 1.94v-.2a13.64 13.64 0 0 1 6.75-11.76 8.78 8.78 0 0 1-2-5.61 8.89 8.89 0 0 1 8.88-8.88 8.89 8.89 0 0 1 8.88 8.88 8.86 8.86 0 0 1-2 5.61 13.4 13.4 0 0 1 2.76 2.13l.08.08.08-.08a13.53 13.53 0 0 1 9.63-4 13.64 13.64 0 0 1 13.65 13.63c-.011 7.516-6.104 13.604-13.62 13.61zm-30.1-6.85h-.1l-.18-.06.41.26a1.83 1.83 0 0 1-.13-.16zm7.78 1.53a4.29 4.29 0 0 1-3.12 1.31 15 15 0 0 0 1.6.54 15.07 15.07 0 0 0 2.76.5c.53.05 1.07.08 1.61.08a11.52 11.52 0 0 0 1.18 0 10.79 10.79 0 0 0 2.69-.65l.32-.12.32-.14c.21-.09.42-.2.63-.31a9.5 9.5 0 0 0 1.17-.73c.2-.13.37-.28.56-.42l.26-.22.26-.23.51-.49.51-.51 4.08-4 8.28-7.92h-7l1.67 1.67-9.41 9.4a8.43 8.43 0 0 1-6 2.49h-.55a13.67 13.67 0 0 1-2.36-.25z"/><path d="M82.17 62.9h0l1.81-1.81-1.81 1.81zm-17.79-3.45l.58.41a11.12 11.12 0 0 0 2.36 1.19 13.14 13.14 0 0 0 4.59.81h.55a8.43 8.43 0 0 0 6-2.49l9.41-9.4-1.67-1.67h7l-8.28 7.92-4.08 4-.51.51-.51.49-.26.23-.26.22-.56.42a9.5 9.5 0 0 1-1.17.73l-.63.31-.32.14-.32.12a10.79 10.79 0 0 1-2.69.65 11.52 11.52 0 0 1-1.18 0c-.54 0-1.08 0-1.61-.08a15.07 15.07 0 0 1-2.76-.5 15.76 15.76 0 0 1-2.63-1c-.42-.2-.83-.44-1.23-.68a12.6 12.6 0 0 1-1.15-.81 11.59 11.59 0 0 1-2-2c-.12-.14-.22-.29-.33-.43a4.34 4.34 0 0 0 2.64.9h.23a4.6 4.6 0 0 0 .79.04z"/><g class="C D E"><path d="M72.47 64.76h-1.78a15.44 15.44 0 0 1-5.55-1.66 13.53 13.53 0 0 1-2.42-1.6 11.41 11.41 0 0 1-2-2.12 9.64 9.64 0 0 1-.77-1.22l-.32-.65-.14-.34-.13-.34a9 9 0 0 1-.52-2.81h0c.34 5.86 6.3 10.52 13.6 10.52h0a11 11 0 0 0 7.81-3.24l1.9-1.89 7.66-7.66 3.32-3.33-7.91 8.28q-2 2.05-4 4.09l-.5.51-.25.25-.27.26-.27.25-.28.24c-.19.15-.38.3-.59.44a11.33 11.33 0 0 1-1.24.79c-.22.11-.44.23-.66.32l-.34.15-.34.14a11.75 11.75 0 0 1-2.87.67c-.37-.07-.76-.05-1.14-.05z"/><path d="M72.46 64.44h0c-7.3 0-13.26-4.66-13.6-10.52A9.76 9.76 0 0 0 61 59.09a12 12 0 0 0 2 2 14.79 14.79 0 0 0 1.15.8 11.31 11.31 0 0 0 1.23.68 15.76 15.76 0 0 0 2.63 1 15.07 15.07 0 0 0 2.76.5c.53.05 1.07.08 1.61.08a11.52 11.52 0 0 0 1.18 0 10.79 10.79 0 0 0 2.69-.65l.32-.12.32-.14a9.16 9.16 0 0 0 .63-.31 9.5 9.5 0 0 0 1.17-.73c.2-.13.37-.28.56-.42l.26-.22.26-.23.51-.49.51-.51 4.08-4 8.28-7.92-3.47 3.48-7.51 7.51-1.9 1.89a11 11 0 0 1-7.81 3.15z"/></g><path d="M72.46 61.9a8.75 8.75 0 0 1-1.63-.16l1.63.16z"/><g class="C D E"><path d="M72.44 62a14.35 14.35 0 0 1-2.66-.29c-4.82-.92-8.39-4.26-8.39-8.25a11.06 11.06 0 0 1 9.39-10.93 5.67 5.67 0 0 0 .84.16l-.75.09c-.21 0-.42.08-.63.12l-.61.16a6 6 0 0 0-.6.19l-.3.1-.3.12a10.73 10.73 0 0 0-1.14.54 11.9 11.9 0 0 0-1.06.68 10.85 10.85 0 0 0-3.29 3.77 10.92 10.92 0 0 0-.91 2.34 11 11 0 0 0-.34 2.49 1.71 1.71 0 0 0 0 .32v.29c0 .2 0 .41.08.61a5.57 5.57 0 0 0 .31 1.2 6.84 6.84 0 0 0 .53 1.13 7.32 7.32 0 0 0 .72 1 10.48 10.48 0 0 0 4.07 3 13.25 13.25 0 0 0 3.39 1 8.79 8.79 0 0 0 1.63.25z"/><path d="M71.9 62.01a13.14 13.14 0 0 1-4.59-.81 11.12 11.12 0 0 1-2.36-1.19 8.82 8.82 0 0 1-1-.8c-.18-.14-.33-.3-.49-.45a5.33 5.33 0 0 1-.46-.49 7.76 7.76 0 0 1-1.39-2.29 6.63 6.63 0 0 1-.37-1.3c0-.23-.06-.45-.09-.68s0-.22 0-.34v-.33a11.88 11.88 0 0 1 .34-2.65 11.25 11.25 0 0 1 1-2.49A11 11 0 0 1 64.01 46a11.22 11.22 0 0 1 2-1.78c.37-.26.75-.48 1.14-.7s.8-.39 1.21-.55a11.84 11.84 0 0 1 2-.57l.57.18a11.05 11.05 0 0 0-9.41 10.93c0 4 3.58 7.32 8.39 8.24a14.57 14.57 0 0 0 2.67.25h-.55z"/></g><path d="M80.35 45.65h0l-.05-.06.05.06z"/><g class="C D E"><path d="M80.35 45.65a11.32 11.32 0 0 0-4.41-2.58 10.37 10.37 0 0 0-2.53-.47l.69-.14a11 11 0 0 1 6.17 3.11h0z"/><path d="M80.36 45.65h-.06a11 11 0 0 0-6.17-3.11l.43-.13a11 11 0 0 1 1.52.43 10.94 10.94 0 0 1 4.28 2.81z"/><path d="M72.46 42.67a7.34 7.34 0 0 1-.81 0 8.28 8.28 0 0 1-.84-.16 11.24 11.24 0 0 1 1.65-.13 11 11 0 0 1 1.64.13l-.69.14a7.45 7.45 0 0 1-.95.07zm0-.34h0a6.31 6.31 0 0 0 6.32-6.31 6.32 6.32 0 0 0-6.18-6.32h-.26a6.32 6.32 0 0 0-6.19 6.32 6.32 6.32 0 0 0 6.32 6.31zm0-12.63a6.44 6.44 0 0 1 2.38.57 6.11 6.11 0 0 1 2 1.4 6.15 6.15 0 0 1 1.7 4.35 6 6 0 0 1-1.81 4.24 6.08 6.08 0 0 1-2 1.29 6 6 0 0 1-2.29.45h0a5.94 5.94 0 0 1-2.28-.45 6.24 6.24 0 0 1-2-1.29 6 6 0 0 1-1.32-1.94 6.44 6.44 0 0 1-.49-2.3 6.2 6.2 0 0 1 1.71-4.36 6.12 6.12 0 0 1 2-1.39 6.44 6.44 0 0 1 2.4-.57z"/><path d="M74.1 42.46a11 11 0 0 0-1.64-.13h0a6.31 6.31 0 0 0 6.32-6.31h0a6.32 6.32 0 0 0-6.18-6.32h.49c.21 0 .41 0 .62.06l.61.13.6.2a6.32 6.32 0 0 1 2.13 1.33 6.67 6.67 0 0 1 1.46 2.09 6.68 6.68 0 0 1 .54 2.5 6.5 6.5 0 0 1-.48 2.53 6.56 6.56 0 0 1-1.41 2.16 6.5 6.5 0 0 1-2.15 1.44 3.8 3.8 0 0 1-.47.18l-.43.13zm-3.29 0a11.24 11.24 0 0 1 1.65-.13h0a6.32 6.32 0 0 1-6.32-6.31h0a6.32 6.32 0 0 1 6.19-6.32h-.49c-.21 0-.42 0-.62.06l-.62.13-.59.2a6.22 6.22 0 0 0-2.13 1.33 6.51 6.51 0 0 0-1.46 2.09 6.68 6.68 0 0 0-.54 2.5 6.68 6.68 0 0 0 .47 2.53 6.75 6.75 0 0 0 1.43 2.17 6.4 6.4 0 0 0 2.15 1.44 2.52 2.52 0 0 0 .33.13 5.22 5.22 0 0 0 .52.18zm21.07 21.98a11 11 0 0 1-7.81-3.24l-.09-.08a11.57 11.57 0 0 0 3.35 2.24 10.72 10.72 0 0 0 3.89.9h.49a11.22 11.22 0 0 0 3.45-.55 11 11 0 0 0 6.02-4.91 10.4 10.4 0 0 0 1.3-3.71 11 11 0 0 0-.1-3.92 10.59 10.59 0 0 0-1.51-3.62 10.92 10.92 0 0 0-2.7-2.85 10.81 10.81 0 0 0-3.54-1.69 10.76 10.76 0 0 0-2.85-.37 10.12 10.12 0 0 0-1.1.05 10.91 10.91 0 0 0-1.94.38 11.19 11.19 0 0 0-1.84.73 11.24 11.24 0 0 0-1.68 1 15.54 15.54 0 0 0-1.44 1.39l-2.92 2.83-2.94 2.88-1.47 1.41-1.47 1.4 9.09-9.09a11 11 0 0 1 18.86 7.77 11 11 0 0 1-11.05 11.05z"/></g><path d="M42.78 60.38l11.5 6.58V54.78l-11.5-6.58v12.18zm11.5-5.6l5.49-3 3.7 9.91-9.19 5.26z"/><path d="M92.03 64.61h-.82a11.07 11.07 0 0 1-7.23-3.46h0l.09.08a11 11 0 0 0 15.649.008 11 11 0 0 0 3.211-7.848h0a11 11 0 0 0-11.05-11.06 11 11 0 0 0-7.81 3.24l-9.09 9.09 1.4-1.47 1.41-1.47 2.82-2.93 2.84-2.91.72-.73.38-.35c.13-.12.27-.22.4-.33a12.4 12.4 0 0 1 1.74-1.14 11.06 11.06 0 0 1 4-1.22 11.15 11.15 0 0 1 1.29-.07 11.89 11.89 0 0 1 2.85.35 11.41 11.41 0 0 1 6.64 4.79 11.35 11.35 0 0 1 1.59 3.86 11.58 11.58 0 0 1 .09 4.15 11.33 11.33 0 0 1-4.16 7 11.24 11.24 0 0 1-3.66 1.91 11.29 11.29 0 0 1-3.3.51z" class="C D E"/><path d="M62.28 48.2c-4.33 8.85 3.63 17.64 11.23 16.69 3.11-.39 6-1 8.2-2.78a5.61 5.61 0 0 0 .47.62h0c.25.33-.27-.16.06.09-2.58 2-3.92 3.58-8.78 4-3.16.29-8.44-1.53-11.75-5.38-.23-.27-.45-1-.66-1.25a12 12 0 0 1-2.27-6.71 12.43 12.43 0 0 1 2.35-7.25 4 4 0 0 0 1.15 1.97zm69.14 12.47V47.54h3.92l5.76 13.13h8.29v-3.23l-7.14-13.13 6.45-12.67v-3.22h-8.29l-5.07 13.13h-3.92V28.42h-8.29v32.25zm22.29-32.25v3.22l10.6 21.66-.23.46a2.06 2.06 0 0 1-2.08 1.38h-3.68v6H162c6 0 8.76-2.72 10.6-7.37l9-22.12v-3.23h-8.29l-4.63 17.48h-.46L162 28.39zm42.79 32.25v-9.91h9.22c4.42 0 7.37-3 7.37-6.91v-8.52c0-3.69-2.77-6.91-7.37-6.91h-17.51v32.25zm6.68-26.26a1.57 1.57 0 0 1 1.6 1.61v7.14a1.57 1.57 0 0 1-1.61 1.61h-6.67V34.41zm17.68 26.26h8.3V34.41h12.21l1.84-2.08v-3.91h-22.35v32.25zm44.41 0h8.29v-3.23l-9.21-29h-11.06l-9.22 29v3.23h8.3l1.61-6.91h9.68l1.61 6.91zm-3.23-12.9h-6.45l3-12h.46l3 12zm26.9 12.9V47.54h8.75v13.13h8.3V28.42h-8.3v13.13h-8.75V28.42h-8.29v32.25zm31 0h18.2l1.38 6.22h6.26V54.68h-4.14V28.42h-21.66l-2.07 22.11a4.89 4.89 0 0 1-1.57 3.14 6.27 6.27 0 0 1-1.43 1h-2.53V66.9h6.22l1.38-6.22zm7.6-26.26h5.76v20.27h-10.09v-.46a5.59 5.59 0 0 0 1.42-.78 4 4 0 0 0 1.57-2.91l1.38-16.12zm33.81 20.73a1.57 1.57 0 0 1-1.57-1.61v-18a1.57 1.57 0 0 1 1.61-1.61h6a1.57 1.57 0 0 1 1.61 1.61v18a1.57 1.57 0 0 1-1.61 1.61zm8.52 6c4.43 0 7.38-3 7.38-6.91V34.9c0-3.69-2.77-6.91-7.38-6.91h-11c-4.43 0-7.38 3-7.38 6.91v19.32c0 3.92 3 6.91 7.38 6.91zm24.36-.46v-9.92h9.22c4.42 0 7.37-3 7.37-6.91v-8.52c0-3.69-2.76-6.91-7.37-6.91h-17.47v32.25zm6.69-26.26a1.57 1.57 0 0 1 1.61 1.61v7.14a1.57 1.57 0 0 1-1.61 1.61h-6.69V34.41zm40.71 22.34l5.3-18.43h.47l1.61 22.35h8.29v-3.23l-3.92-29h-10.32l-6 19.35h-.46l-6-19.35h-10.35l-3.92 29v3.23h8.3l1.61-22.35h.46l5.3 18.43zm42.34 3.92h8.29v-3.23l-9.21-29h-11.02l-9.22 29v3.23h8.3l1.61-6.91h9.67l1.62 6.91zm-3.19-12.91h-6.45l3-12h.45l3 12zm34.73-19.35v26.26h-8.06V28.42h-8.29v32.25h41V28.42h-8.29v26.26h-8.09V28.42z"/><path d="M128.61 9.64h-4V2.09h-1.65v16.52h1.65V10.9h4l4.6 7.67h1.57v-.83l-4.71-7.55 4.08-7.29v-.83h-1.53l-4 7.55zm18.4-2.74v-.8h-1.53l-3.63 10.85h-.07L137.34 6.1h-1.56v.8l5.09 11.7v.21l-.35 1a2.24 2.24 0 0 1-2 1.53h-1.18v1.3h1.18a3.85 3.85 0 0 0 3.78-2.83l4.71-12.91zm2.6-.83v16.55h1.65v-4h5.07c2.27 0 3.54-1.3 3.54-3.19V9.05c0-1.89-1.27-3.18-3.54-3.18h-2.47a3 3 0 0 0-2.22.94 3.27 3.27 0 0 0-.62.94h-.11l-.24-1.65zm1.65 3.3a3.77 3.77 0 0 1 .59-1.1 2.46 2.46 0 0 1 2-1.14h2.47a1.87 1.87 0 0 1 1.89 1.89v6.37a1.87 1.87 0 0 1-1.89 1.89h-5.07V9.4zm12.15-3.3v12.54h1.65V7.4h6.61l.47-.47V6.1zm11 1.3h5.55a1.86 1.86 0 0 1 1.82 1.92v2.24h-5c-2.26 0-3.54 1.3-3.54 3.18v.95c0 1.88 1.28 3.18 3.54 3.18h2.48a3 3 0 0 0 2.18-.94 3 3 0 0 0 .61-1h.12l.23 1.66h1.07V9.29c0-1.89-1.28-3.19-3.54-3.19h-5.55v1.3zm7.37 5.46v2.47a5.08 5.08 0 0 1-.58 1.14 2.54 2.54 0 0 1-2 1.1h-2.42a1.86 1.86 0 0 1-1.89-1.88v-.95a1.86 1.86 0 0 1 1.89-1.88zm7.11 5.78V12.9h7.08v5.67h1.65V6.1h-1.65v5.55h-7.08V6.1h-1.65v12.51zm21.71 0v-1.3h-5.9a1.87 1.87 0 0 1-1.92-1.89V9.29a1.86 1.86 0 0 1 1.89-1.89h5.43l.47-.47V6.1h-5.9c-2.26 0-3.54 1.3-3.54 3.19v6.13c0 1.89 1.28 3.19 3.54 3.19zm7.9-7h-3.54V6.1h-1.65v12.51h1.65V12.9h3.54l3.54 5.67h1.54v-.83l-3.8-5.5 3.44-5.34v-.8h-1.53l-3.19 5.55zm16.64-3.54h.11l-.23 3.18v7.32h1.65V6.1h-1.89l-7 10.5h-.11l.23-3.18V6.1h-1.61v12.51h1.89l7-10.5zm14.15 0h.12l-.23 3.18v7.32h1.65V6.1h-1.89l-7 10.5h-.12l.24-3.18V6.1h-1.61v12.51h1.88l7-10.5zm-2.71-3.62a2.23 2.23 0 0 0 2.48-2.24v-.83h-1.42v.83a1.05 1.05 0 0 1-1.06 1.06h-1.89a1.05 1.05 0 0 1-1.06-1.06v-.83h-1.41v.83a2.22 2.22 0 0 0 2.47 2.24zm19.82 3a1.86 1.86 0 0 1 1.89 1.89v.47a1.87 1.87 0 0 1-1.89 1.89h-3.47v1.2h3.71a1.86 1.86 0 0 1 1.88 1.89v.59a1.86 1.86 0 0 1-1.88 1.89h-6.49v1.3h6.49c2.26 0 3.53-1.3 3.53-3.19v-.59a2.44 2.44 0 0 0-1.17-2.1 4.44 4.44 0 0 0-1.22-.45v-.12a3.79 3.79 0 0 0 1.06-.47 2.21 2.21 0 0 0 1.06-1.91v-.45c0-1.89-1.27-3.19-3.54-3.19h-5.9v.8l.47.47zm7.55 0h5.55a1.86 1.86 0 0 1 1.88 1.89v2.24h-5.07c-2.26 0-3.54 1.3-3.54 3.18v.95c0 1.88 1.28 3.18 3.54 3.18h2.47a3 3 0 0 0 2.23-.99 3.15 3.15 0 0 0 .61-1h.16l.23 1.66h1.06V9.29c0-1.89-1.27-3.19-3.53-3.19h-5.59v1.3zm7.43 5.43v2.42a4.71 4.71 0 0 1-.6 1.14 2.52 2.52 0 0 1-2 1.1h-2.47a1.86 1.86 0 0 1-1.89-1.88v-.95a1.86 1.86 0 0 1 1.89-1.88zm5.4-6.78v12.51h6.72c2.27 0 3.54-1.3 3.54-3.19v-.59a2.42 2.42 0 0 0-1.18-2.1 4.18 4.18 0 0 0-1.18-.49v-.12a3.24 3.24 0 0 0 .88-.47 2.36 2.36 0 0 0 .89-1.91v-.45c0-1.89-1.27-3.19-3.54-3.19zm1.65 11.21V12.9h5.07a1.86 1.86 0 0 1 1.89 1.89v.59a1.86 1.86 0 0 1-1.89 1.89zm4.48-9.91a1.86 1.86 0 0 1 1.89 1.89v.47a1.87 1.87 0 0 1-1.89 1.89h-4.45V7.4zm14.16 11.44c2.26 0 3.54-1.3 3.54-3.18V9.05c0-1.89-1.28-3.18-3.54-3.18h-3.54c-2.26 0-3.54 1.29-3.54 3.18v6.61c0 1.88 1.28 3.18 3.54 3.18zm-5.43-9.79a1.87 1.87 0 0 1 1.89-1.89h3.54a1.87 1.87 0 0 1 1.89 1.89v6.61a1.86 1.86 0 0 1-1.89 1.88h-3.54a1.86 1.86 0 0 1-1.89-1.88V9.05zM315.8 6.1l-.83 9a2.48 2.48 0 0 1-.94 1.65 5.62 5.62 0 0 1-.83.59h-.94v4.36h1.3l.47-3.06h10.5l.47 3.06h1.3v-4.39h-2.12V6.1zm1.53 1.3h5.19v9.91h-7.55v-.12a3.22 3.22 0 0 0 .78-.52 2.47 2.47 0 0 0 .88-1.6l.7-7.67zm19.94-1.3l-.83 9a2.48 2.48 0 0 1-.94 1.65 6.1 6.1 0 0 1-.82.59h-1v4.36h1.3l.47-3.06h10.5l.47 3.06h1.36v-4.39h-2.1V6.1zm1.53 1.3h5.19v9.91h-7.55v-.12a3.22 3.22 0 0 0 .78-.52 2.43 2.43 0 0 0 .88-1.6l.7-7.67zm18.29 11.44c2.27 0 3.54-1.3 3.54-3.18V9.05c0-1.89-1.27-3.18-3.54-3.18h-3.51c-2.26 0-3.54 1.29-3.54 3.18v6.61c0 1.88 1.28 3.18 3.54 3.18zm-5.43-9.79a1.87 1.87 0 0 1 1.89-1.89h3.54a1.87 1.87 0 0 1 1.89 1.89v6.61a1.86 1.86 0 0 1-1.89 1.88h-3.51a1.86 1.86 0 0 1-1.89-1.88V9.05zm12.51-2.95v16.52h1.65v-4h5.07c2.27 0 3.54-1.3 3.54-3.19V9.05c0-1.89-1.27-3.18-3.54-3.18h-2.48a3 3 0 0 0-2.21.94 3.27 3.27 0 0 0-.62.94h-.11l-.24-1.65zm1.65 3.3a3.77 3.77 0 0 1 .59-1.1 2.45 2.45 0 0 1 2-1.14h2.48a1.87 1.87 0 0 1 1.89 1.89v6.37a1.87 1.87 0 0 1-1.89 1.89h-5.07V9.4zm19 9.44c2.27 0 3.54-1.3 3.54-3.18V9.05c0-1.89-1.27-3.18-3.54-3.18h-3.54c-2.26 0-3.54 1.29-3.54 3.18v6.61c0 1.88 1.28 3.18 3.54 3.18zm-5.42-9.79a1.86 1.86 0 0 1 1.88-1.89h3.54a1.86 1.86 0 0 1 1.96 1.89v6.61a1.86 1.86 0 0 1-1.89 1.88h-3.54a1.85 1.85 0 0 1-1.88-1.88V9.05zm13.38-2.95h-1.54v.8l3.19 5.31-3.54 5.54v.83h1.53l3.28-5.68h3.3v5.67h1.65V12.9h3.3l3.31 5.67h1.52v-.83l-3.54-5.54 3.2-5.3v-.8h-1.54l-3 5.55h-3.3V6.1h-1.65v5.55h-3.3l-2.87-5.55zm20.41 12.51V12.9h7.07v5.67h1.66V6.1h-1.66v5.55h-7.07V6.1h-1.66v12.51zm22.41-4.84c0-1.89-1.27-3.19-3.54-3.19h-4.72V6.1h-1.65v12.51h6.37c2.27 0 3.54-1.3 3.54-3.19v-1.65zm-1.65 1.65a1.87 1.87 0 0 1-1.89 1.89h-4.72V11.9h4.72a1.87 1.87 0 0 1 1.89 1.89v1.65zm6.25 3.19V6.1h-1.65v12.51zm7.91-7.44l-3.54-5.07h-1.54v.8l4.13 5.42-4.38 5.46v.83h1.53l3.78-5.08h.12l3.77 5.08h1.53v-.83l-4.36-5.43 4.11-5.45v-.8h-1.48l-3.53 5.07zm23.47 6l3.9-9.32h.11l1.42 10.74h1.53v-.83L476.86 6.1h-2.36l-4 9.44h-.12l-4-9.44h-2.36l-1.65 11.68v.83h1.54L465.3 7.9h.12l3.89 9.32zm10.74-9.79h5.54a1.86 1.86 0 0 1 1.89 1.89v2.24h-5.07c-2.27 0-3.54 1.3-3.54 3.18v.95c0 1.88 1.27 3.18 3.54 3.18h2.47a2.94 2.94 0 0 0 2.22-.94 3 3 0 0 0 .62-1h.11l.24 1.66h1.06V9.29c0-1.89-1.27-3.19-3.54-3.19h-5.54v1.3zm7.43 5.43v2.49a5.09 5.09 0 0 1-.59 1.14 2.52 2.52 0 0 1-2 1.1h-2.47a1.86 1.86 0 0 1-1.91-1.88v-.95a1.86 1.86 0 0 1 1.89-1.88zm13-6.73v11.23h-5.97V6.1h-1.65v12.51h16.75V6.1h-1.65v11.21h-5.9V6.1zm21.82 2h.12l-.24 3.18v7.32h1.66V6.1h-1.89l-7 10.5h-.12l.23-3.18V6.1h-1.65v12.51h1.89l7-10.5zm7 10.5V12.9h7.08v5.67h1.65V6.1h-1.65v5.55h-7.17V6.1h-1.65v12.51z"/></g></svg>