<svg xmlns="http://www.w3.org/2000/svg" width="25" height="28" fill="none"><path d="M12.305 0C5.52 0 0 5.52 0 12.305v6.672c0 1.357 1.104 2.461 2.461 2.461h.961c.339.955 1.25 1.641 2.32 1.641 1.357 0 2.461-1.104 2.461-2.461v-6.672c0-1.357-1.104-2.461-2.461-2.461-1.069 0-1.981.686-2.32 1.641h-.961a2.45 2.45 0 0 0-.82.141v-.961A10.68 10.68 0 0 1 12.305 1.641a10.68 10.68 0 0 1 10.664 10.664v.961a2.45 2.45 0 0 0-.82-.141h-.961c-.339-.955-1.25-1.641-2.32-1.641-1.357 0-2.461 1.104-2.461 2.461v6.672c0 1.357 1.104 2.461 2.461 2.461.248 0 .488-.037.714-.106-.307 1.01-1.246 1.747-2.355 1.747h-2.602c-.339-.955-1.25-1.641-2.32-1.641-1.357 0-2.461 1.104-2.461 2.461S10.948 28 12.305 28c1.069 0 1.981-.686 2.32-1.641h2.602a4.11 4.11 0 0 0 4.101-4.102v-.82h.82c1.357 0 2.461-1.104 2.461-2.461v-6.672C24.609 5.52 19.09 0 12.305 0zM4.922 13.945a.82.82 0 0 1 1.641 0v6.672a.82.82 0 0 1-1.641 0v-6.672zm-2.461.82h.82v5.031h-.82a.82.82 0 0 1-.82-.82v-3.391a.82.82 0 0 1 .82-.82zm9.844 11.594a.82.82 0 1 1 0-1.641.82.82 0 1 1 0 1.641zm7.383-5.742a.82.82 0 1 1-1.641 0v-6.672a.82.82 0 1 1 1.641 0v6.672zm3.281-1.641a.82.82 0 0 1-.82.82h-.82v-5.031h.82a.82.82 0 0 1 .82.82v3.391z" fill="#fff"/></svg>